<svg aria-hidden="true" style="position: absolute; width: 0; height: 0; overflow: hidden;" version="1.1" xmlns="http://www.w3.org/2000/svg" xmlns:xlink="http://www.w3.org/1999/xlink">
<defs>
<symbol id="icon-phone" viewBox="0 0 32 32">
<path d="M22 20c-2 2-2 4-4 4s-4-2-6-4-4-4-4-6 2-2 4-4-4-8-6-8-6 6-6 6c0 4 4.109 12.109 8 16s12 8 16 8c0 0 6-4 6-6s-6-8-8-6z"></path>
</symbol>
<symbol id="icon-mail4" viewBox="0 0 32 32">
<path d="M16 0c-8.837 0-16 7.163-16 16s7.163 16 16 16 16-7.163 16-16-7.163-16-16-16zM8 8h16c0.286 0 0.563 0.061 0.817 0.177l-8.817 10.286-8.817-10.287c0.254-0.116 0.531-0.177 0.817-0.177zM6 22v-12c0-0.042 0.002-0.084 0.004-0.125l5.864 6.842-5.8 5.8c-0.045-0.167-0.069-0.34-0.069-0.517zM24 24h-16c-0.177 0-0.35-0.024-0.517-0.069l5.691-5.691 2.826 3.297 2.826-3.297 5.691 5.691c-0.167 0.045-0.34 0.069-0.517 0.069zM26 22c0 0.177-0.024 0.35-0.069 0.517l-5.8-5.8 5.865-6.842c0.003 0.041 0.004 0.083 0.004 0.125v12z"></path>
</symbol>
<symbol id="icon-facebook" viewBox="0 0 32 32">
<path d="M19 6h5v-6h-5c-3.86 0-7 3.14-7 7v3h-4v6h4v16h6v-16h5l1-6h-6v-3c0-0.542 0.458-1 1-1z"></path>
</symbol>
<symbol id="icon-instagram" viewBox="0 0 32 32">
<path d="M16 2.881c4.275 0 4.781 0.019 6.462 0.094 1.563 0.069 2.406 0.331 2.969 0.55 0.744 0.288 1.281 0.638 1.837 1.194 0.563 0.563 0.906 1.094 1.2 1.838 0.219 0.563 0.481 1.412 0.55 2.969 0.075 1.688 0.094 2.194 0.094 6.463s-0.019 4.781-0.094 6.463c-0.069 1.563-0.331 2.406-0.55 2.969-0.288 0.744-0.637 1.281-1.194 1.837-0.563 0.563-1.094 0.906-1.837 1.2-0.563 0.219-1.413 0.481-2.969 0.55-1.688 0.075-2.194 0.094-6.463 0.094s-4.781-0.019-6.463-0.094c-1.563-0.069-2.406-0.331-2.969-0.55-0.744-0.288-1.281-0.637-1.838-1.194-0.563-0.563-0.906-1.094-1.2-1.837-0.219-0.563-0.481-1.413-0.55-2.969-0.075-1.688-0.094-2.194-0.094-6.463s0.019-4.781 0.094-6.463c0.069-1.563 0.331-2.406 0.55-2.969 0.288-0.744 0.638-1.281 1.194-1.838 0.563-0.563 1.094-0.906 1.838-1.2 0.563-0.219 1.412-0.481 2.969-0.55 1.681-0.075 2.188-0.094 6.463-0.094zM16 0c-4.344 0-4.887 0.019-6.594 0.094-1.7 0.075-2.869 0.35-3.881 0.744-1.056 0.412-1.95 0.956-2.837 1.85-0.894 0.888-1.438 1.781-1.85 2.831-0.394 1.019-0.669 2.181-0.744 3.881-0.075 1.713-0.094 2.256-0.094 6.6s0.019 4.887 0.094 6.594c0.075 1.7 0.35 2.869 0.744 3.881 0.413 1.056 0.956 1.95 1.85 2.837 0.887 0.887 1.781 1.438 2.831 1.844 1.019 0.394 2.181 0.669 3.881 0.744 1.706 0.075 2.25 0.094 6.594 0.094s4.888-0.019 6.594-0.094c1.7-0.075 2.869-0.35 3.881-0.744 1.050-0.406 1.944-0.956 2.831-1.844s1.438-1.781 1.844-2.831c0.394-1.019 0.669-2.181 0.744-3.881 0.075-1.706 0.094-2.25 0.094-6.594s-0.019-4.887-0.094-6.594c-0.075-1.7-0.35-2.869-0.744-3.881-0.394-1.063-0.938-1.956-1.831-2.844-0.887-0.887-1.781-1.438-2.831-1.844-1.019-0.394-2.181-0.669-3.881-0.744-1.712-0.081-2.256-0.1-6.6-0.1v0z"></path>
<path d="M16 7.781c-4.537 0-8.219 3.681-8.219 8.219s3.681 8.219 8.219 8.219 8.219-3.681 8.219-8.219c0-4.537-3.681-8.219-8.219-8.219zM16 21.331c-2.944 0-5.331-2.387-5.331-5.331s2.387-5.331 5.331-5.331c2.944 0 5.331 2.387 5.331 5.331s-2.387 5.331-5.331 5.331z"></path>
<path d="M26.462 7.456c0 1.060-0.859 1.919-1.919 1.919s-1.919-0.859-1.919-1.919c0-1.060 0.859-1.919 1.919-1.919s1.919 0.859 1.919 1.919z"></path>
</symbol>
<symbol id="icon-twitter" viewBox="0 0 32 32">
<path d="M32 7.075c-1.175 0.525-2.444 0.875-3.769 1.031 1.356-0.813 2.394-2.1 2.887-3.631-1.269 0.75-2.675 1.3-4.169 1.594-1.2-1.275-2.906-2.069-4.794-2.069-3.625 0-6.563 2.938-6.563 6.563 0 0.512 0.056 1.012 0.169 1.494-5.456-0.275-10.294-2.888-13.531-6.862-0.563 0.969-0.887 2.1-0.887 3.3 0 2.275 1.156 4.287 2.919 5.463-1.075-0.031-2.087-0.331-2.975-0.819 0 0.025 0 0.056 0 0.081 0 3.181 2.263 5.838 5.269 6.437-0.55 0.15-1.131 0.231-1.731 0.231-0.425 0-0.831-0.044-1.237-0.119 0.838 2.606 3.263 4.506 6.131 4.563-2.25 1.762-5.075 2.813-8.156 2.813-0.531 0-1.050-0.031-1.569-0.094 2.913 1.869 6.362 2.95 10.069 2.95 12.075 0 18.681-10.006 18.681-18.681 0-0.287-0.006-0.569-0.019-0.85 1.281-0.919 2.394-2.075 3.275-3.394z"></path>
</symbol>
<symbol id="icon-linkedin2" viewBox="0 0 32 32">
<path d="M12 12h5.535v2.837h0.079c0.77-1.381 2.655-2.837 5.464-2.837 5.842 0 6.922 3.637 6.922 8.367v9.633h-5.769v-8.54c0-2.037-0.042-4.657-3.001-4.657-3.005 0-3.463 2.218-3.463 4.509v8.688h-5.767v-18z"></path>
<path d="M2 12h6v18h-6v-18z"></path>
<path d="M8 7c0 1.657-1.343 3-3 3s-3-1.343-3-3c0-1.657 1.343-3 3-3s3 1.343 3 3z"></path>
</symbol>
<symbol id="group1" viewBox="0 0 41 47">
<path fill="var(--icon-color, #000)" clip-rule="evenodd" d="M6 0L13.0078 6.67637L0 6.66866V39.0609H34V26.6758L41 33.3448V0H6ZM33.6924 25.8922L13.8226 6.962H33.6924V25.8922ZM27.5231 34.3227H5.38008V12.5373H6.9453V32.8475H27.5231V34.3227ZM9.7959 45.0611L8.9707 43.3643H8.28955L9.48584 45.6104V46.919H10.1035V45.6104L11.2998 43.3643H10.6211L9.7959 45.0611ZM12.8379 43.3643H12.9844L14.3271 46.919H13.6826L13.395 46.0865H12.0189L11.7319 46.919H11.0898L12.4277 43.3643H12.5718H12.8379ZM12.1864 45.6007H13.2271L12.7062 44.0927L12.1864 45.6007ZM16.4821 45.0117C16.4553 44.9776 16.4295 44.9445 16.4048 44.9122C16.3136 44.7917 16.2428 44.6754 16.1924 44.5631C16.1419 44.4491 16.1167 44.3319 16.1167 44.2115C16.1167 44.026 16.1549 43.8665 16.2314 43.733C16.3079 43.5995 16.4162 43.497 16.5562 43.4254C16.6961 43.3521 16.8597 43.3155 17.0469 43.3155C17.2275 43.3155 17.383 43.3521 17.5132 43.4254C17.645 43.497 17.7459 43.5922 17.8159 43.711C17.8875 43.8298 17.9233 43.96 17.9233 44.1016C17.9233 44.2139 17.903 44.3165 17.8623 44.4093C17.8216 44.502 17.7655 44.5867 17.6938 44.6632C17.6222 44.7397 17.5392 44.8121 17.4448 44.8805L17.1979 45.0602L17.9018 45.8909C17.925 45.8453 17.946 45.7973 17.9648 45.7472C18.0251 45.5909 18.0552 45.4176 18.0552 45.2271H18.563C18.563 45.3997 18.5459 45.5632 18.5117 45.7179C18.4792 45.8725 18.4263 46.0157 18.353 46.1475C18.3233 46.2022 18.2897 46.2545 18.2522 46.3044L18.7729 46.919H18.0918L17.8852 46.676C17.7734 46.7609 17.6518 46.8272 17.5205 46.8751C17.348 46.9369 17.1641 46.9679 16.9688 46.9679C16.7327 46.9679 16.5285 46.9247 16.356 46.8385C16.1834 46.7522 16.05 46.6334 15.9556 46.482C15.8628 46.3306 15.8164 46.1573 15.8164 45.962C15.8164 45.8171 15.8465 45.6902 15.9067 45.5811C15.967 45.4705 16.0492 45.3679 16.1533 45.2735C16.2495 45.1862 16.3591 45.099 16.4821 45.0117ZM16.7738 45.3689L16.7002 45.4224C16.6139 45.4924 16.5496 45.56 16.5073 45.6251C16.4666 45.6886 16.4398 45.7472 16.4268 45.8009C16.4137 45.8546 16.4072 45.9018 16.4072 45.9425C16.4072 46.0466 16.4292 46.141 16.4731 46.2257C16.5187 46.3103 16.5846 46.3778 16.6709 46.4283C16.7588 46.4771 16.8654 46.5015 16.9907 46.5015C17.1258 46.5015 17.2568 46.4714 17.3838 46.4112C17.4474 46.3802 17.5078 46.3429 17.5648 46.2992L16.7738 45.3689ZM16.9143 44.7196L17.1323 44.5728C17.2349 44.5045 17.3081 44.4377 17.3521 44.3726C17.396 44.3059 17.418 44.2229 17.418 44.1236C17.418 44.039 17.3854 43.9609 17.3203 43.8892C17.2552 43.8176 17.1632 43.7818 17.0444 43.7818C16.9614 43.7818 16.8914 43.8013 16.8345 43.8404C16.7775 43.8778 16.7344 43.9283 16.7051 43.9918C16.6774 44.0536 16.6636 44.1228 16.6636 44.1993C16.6636 44.2725 16.6823 44.3482 16.7197 44.4263C16.7572 44.5028 16.8084 44.5834 16.8735 44.668C16.8868 44.685 16.9004 44.7021 16.9143 44.7196ZM23.1333 45.7618H22.5229C22.505 45.9164 22.4676 46.0474 22.4106 46.1549C22.3553 46.2607 22.2731 46.3412 22.1641 46.3966C22.0566 46.4519 21.9159 46.4796 21.7417 46.4796C21.5985 46.4796 21.4756 46.4511 21.373 46.3941C21.2705 46.3372 21.1859 46.2566 21.1191 46.1524C21.054 46.0483 21.0052 45.9237 20.9727 45.7789C20.9417 45.6324 20.9263 45.4696 20.9263 45.2906V44.9903C20.9263 44.8015 20.9434 44.6339 20.9775 44.4874C21.0133 44.3393 21.0662 44.2148 21.1362 44.1138C21.2062 44.0129 21.2933 43.9364 21.3975 43.8844C21.5016 43.8323 21.6237 43.8062 21.7637 43.8062C21.9346 43.8062 22.0729 43.8355 22.1787 43.8941C22.2845 43.9511 22.3643 44.0341 22.418 44.1431C22.4733 44.2522 22.5091 44.3832 22.5254 44.5362H23.1357C23.1113 44.2986 23.0446 44.0878 22.9355 43.9039C22.8281 43.72 22.6768 43.5759 22.4814 43.4718C22.2861 43.3676 22.0469 43.3155 21.7637 43.3155C21.5407 43.3155 21.3397 43.3546 21.1606 43.4327C20.9832 43.5108 20.8311 43.6239 20.7041 43.7721C20.5771 43.9185 20.4795 44.0951 20.4111 44.3018C20.3444 44.5085 20.311 44.7397 20.311 44.9952V45.2906C20.311 45.5461 20.3436 45.7773 20.4087 45.984C20.4754 46.1907 20.5715 46.3673 20.6968 46.5138C20.8221 46.6586 20.9727 46.7709 21.1484 46.8507C21.3242 46.9288 21.522 46.9679 21.7417 46.9679C22.0282 46.9679 22.2715 46.9158 22.4717 46.8116C22.6719 46.7074 22.8273 46.565 22.938 46.3844C23.0487 46.2021 23.1138 45.9945 23.1333 45.7618ZM26.5244 45.2393V45.044C26.5244 44.7755 26.4886 44.5354 26.417 44.3238C26.347 44.1106 26.2469 43.9291 26.1167 43.7794C25.9865 43.628 25.8311 43.5133 25.6504 43.4351C25.4697 43.3554 25.2695 43.3155 25.0498 43.3155C24.8317 43.3155 24.6323 43.3554 24.4517 43.4351C24.2726 43.5133 24.1172 43.628 23.9854 43.7794C23.8551 43.9291 23.7542 44.1106 23.6826 44.3238C23.611 44.5354 23.5752 44.7755 23.5752 45.044V45.2393C23.5752 45.5079 23.611 45.7488 23.6826 45.962C23.7559 46.1752 23.8584 46.3567 23.9902 46.5064C24.1221 46.6562 24.2775 46.7709 24.4565 46.8507C24.6372 46.9288 24.8366 46.9679 25.0547 46.9679C25.2744 46.9679 25.4746 46.9288 25.6553 46.8507C25.8359 46.7709 25.9906 46.6562 26.1191 46.5064C26.2493 46.3567 26.3494 46.1752 26.4194 45.962C26.4894 45.7488 26.5244 45.5079 26.5244 45.2393ZM25.9116 45.0391V45.2393C25.9116 45.4379 25.8921 45.6137 25.853 45.7667C25.8156 45.9197 25.7603 46.0491 25.687 46.1549C25.6138 46.259 25.5243 46.338 25.4185 46.3917C25.3127 46.4438 25.1914 46.4698 25.0547 46.4698C24.9196 46.4698 24.7992 46.4438 24.6934 46.3917C24.5876 46.338 24.4964 46.259 24.4199 46.1549C24.3451 46.0491 24.2881 45.9197 24.249 45.7667C24.21 45.6137 24.1904 45.4379 24.1904 45.2393V45.0391C24.1904 44.8406 24.21 44.6656 24.249 44.5142C24.2881 44.3612 24.3442 44.2335 24.4175 44.1309C24.4923 44.0268 24.5827 43.9486 24.6885 43.8966C24.7943 43.8429 24.9147 43.816 25.0498 43.816C25.1849 43.816 25.3062 43.8429 25.4136 43.8966C25.521 43.9486 25.6113 44.0268 25.6846 44.1309C25.7594 44.2335 25.8156 44.3612 25.853 44.5142C25.8921 44.6656 25.9116 44.8406 25.9116 45.0391Z"
                  />
</symbol>
                <symbol id="group2" viewBox="0 0 40 52">
                  <path
                    fill="var(--icon-color, #000)"
                    clip-rule="evenodd"
                    d="M17.1136 2.93452H16.977C16.7671 2.92181 16.5571 2.91672 16.3471 2.91163H16.3471H16.3269H15.8918C15.4946 2.91163 15.0898 2.92181 14.6876 2.94215C14.6573 2.93994 14.6269 2.93994 14.5966 2.94215C10.9522 3.14863 7.38171 4.05951 4.08049 5.62492L3.6479 5.83344V27.9746L4.65979 27.6313C5.54773 27.3261 6.49384 27.0515 7.47285 26.7972C10.1193 26.1178 12.8367 25.7567 15.568 25.7216V28.6306C15.2062 28.6332 14.8546 28.6434 14.503 28.6612H14.4195C12.3175 28.7765 10.2317 29.0967 8.19129 29.6173C5.60716 30.2643 3.11433 31.2357 0.771606 32.5086V4.11189C3.20469 2.69275 5.82533 1.62687 8.55557 0.945963C10.9527 0.327052 13.4169 0.00930695 15.8918 0H16.3193C16.8303 0.0127146 17.3287 0.0356008 17.7967 0.0712015C19.0297 0.157776 20.2528 0.352628 21.4521 0.653528V3.51685C20.2874 3.24551 19.1032 3.06695 17.9105 2.98284C17.8863 2.98079 17.8621 2.97872 17.8379 2.97666C17.5911 2.95561 17.344 2.93452 17.1136 2.93452ZM22.1528 5.86138C22.7877 5.9097 23.4455 5.93259 24.1108 5.93259C26.7125 5.92307 29.3031 5.59083 31.8239 4.94339C34.4068 4.29396 36.8986 3.32178 39.2411 2.04956V29.9402C36.8067 31.3585 34.1853 32.4243 31.4546 33.1061C29.0571 33.7227 26.5931 34.0395 24.1184 34.0496C22.2433 34.0647 20.3737 33.8443 18.553 33.3935V5.32229C18.983 5.42146 19.4257 5.51301 19.876 5.58929C20.6147 5.7139 21.3939 5.80544 22.1528 5.86138ZM36.3471 6.07753L35.3352 6.41828C34.4042 6.73106 33.4657 7.01078 32.5221 7.25998C29.7749 7.96596 26.9514 8.3281 24.1158 8.33818C23.4556 8.33818 22.8485 8.32038 22.2616 8.28224L21.4546 8.22883V28.3178V31.0057L22.1477 31.0667C22.7903 31.1227 23.4531 31.1506 24.1209 31.1506C26.3544 31.1412 28.5781 30.8533 30.7412 30.2937C32.5223 29.8469 34.2552 29.2243 35.9145 28.4348L36.3471 28.2263V6.07753Z"
                  />
                  <path
                    fill="var(--icon-color, #000)" d="M2.73713 42.2124C2.59166 42.0615 2.41629 41.943 2.22236 41.8646C2.02844 41.7862 1.82029 41.7496 1.61141 41.7572C1.38879 41.7542 1.16781 41.7957 0.961267 41.8793C0.771901 41.9547 0.599767 42.068 0.455322 42.2124C0.312451 42.3572 0.201292 42.5304 0.128988 42.721C0.0496792 42.9207 0.0101425 43.1341 0.0126205 43.3491V47.1431C0.00357283 47.4104 0.0545882 47.6764 0.161874 47.9212C0.251433 48.1156 0.380725 48.2889 0.541333 48.4298C0.692953 48.5575 0.870978 48.6495 1.06246 48.6994C1.24694 48.7512 1.43755 48.7777 1.62911 48.7782C1.84041 48.7803 2.04953 48.7351 2.24131 48.646C2.43095 48.563 2.60277 48.4438 2.74725 48.295C2.88814 48.1476 3.00052 47.9752 3.07865 47.7864C3.15973 47.5951 3.20105 47.3892 3.20007 47.1812V46.7566H2.20842V47.0948C2.21137 47.2103 2.1916 47.3252 2.15024 47.433C2.11794 47.5137 2.06877 47.5866 2.00604 47.6466C1.94461 47.6962 1.87416 47.7334 1.79861 47.7559C1.73164 47.7782 1.6617 47.7902 1.59117 47.7915C1.50263 47.8018 1.41296 47.7885 1.33122 47.7527C1.24948 47.717 1.17858 47.6602 1.1257 47.5881C1.03222 47.4356 0.986395 47.2585 0.994154 47.0795V43.5423C0.988002 43.3462 1.02969 43.1515 1.11558 42.9753C1.16706 42.8952 1.2399 42.8313 1.32578 42.7908C1.41166 42.7503 1.50713 42.7349 1.60129 42.7464C1.68676 42.7434 1.7717 42.7612 1.8488 42.7984C1.92591 42.8356 1.99289 42.8911 2.04399 42.96C2.15496 43.1057 2.21298 43.2852 2.20842 43.4686V43.7966H3.18995V43.4101C3.19195 43.1831 3.15073 42.9578 3.06853 42.7464C2.99527 42.5476 2.88251 42.3659 2.73713 42.2124Z"
                  />
                  <path
                    fill="var(--icon-color, #000)" d="M8.62892 42.1691C8.31271 41.9021 7.91362 41.7546 7.50066 41.7521C7.29868 41.7529 7.09838 41.7891 6.9087 41.8589C6.71613 41.9279 6.53841 42.0332 6.38505 42.1691C6.22076 42.3168 6.08968 42.498 6.00053 42.7006C5.90063 42.9323 5.85146 43.183 5.85634 43.4355V47.0744C5.8495 47.3304 5.89873 47.5847 6.00053 47.8195C6.09028 48.0151 6.22152 48.1887 6.38505 48.328C6.53665 48.4688 6.71468 48.5777 6.9087 48.6485C7.09838 48.7183 7.29868 48.7544 7.50066 48.7553C7.70269 48.7549 7.90307 48.7187 8.09262 48.6485C8.28995 48.5767 8.47195 48.468 8.62892 48.328C8.7871 48.1861 8.91454 48.013 9.00332 47.8195C9.10512 47.5847 9.15435 47.3304 9.14751 47.0744V43.4355C9.15239 43.183 9.10322 42.9323 9.00332 42.7006C8.91505 42.5001 8.78775 42.3194 8.62892 42.1691ZM8.16598 47.0744C8.17434 47.1714 8.16095 47.269 8.1268 47.3601C8.09265 47.4512 8.03861 47.5334 7.96866 47.6008C7.83768 47.7106 7.67251 47.7708 7.50193 47.7708C7.33135 47.7708 7.16617 47.7106 7.03519 47.6008C6.96524 47.5334 6.9112 47.4512 6.87705 47.3601C6.8429 47.269 6.82952 47.1714 6.83787 47.0744V43.4355C6.82952 43.3385 6.8429 43.2409 6.87705 43.1498C6.9112 43.0587 6.96524 42.9764 7.03519 42.9091C7.16617 42.7993 7.33135 42.7391 7.50193 42.7391C7.67251 42.7391 7.83768 42.7993 7.96866 42.9091C8.03861 42.9764 8.09265 43.0587 8.1268 43.1498C8.16095 43.2409 8.17434 43.3385 8.16598 43.4355V47.0744Z"
                  />
                  <path
                    fill="var(--icon-color, #000)" d="M16.3673 48.6994V41.8107H15.4136L14.1614 45.4572H14.1437L12.8813 41.8107H11.9377V48.6994H12.9218V44.5087H12.9395L13.9033 47.4712H14.3941L15.3655 44.5087H15.3832V48.6994H16.3673Z"
                  />
                  <path
                    fill="var(--icon-color, #000)" d="M21.9581 42.2937C21.8065 42.1237 21.6153 41.9943 21.4015 41.9173C21.1712 41.8424 20.9302 41.8063 20.6881 41.8105H19.226V48.6993H20.2075V46.0089H20.7134C21.0197 46.0228 21.3244 45.958 21.5988 45.8207C21.822 45.6968 22.0081 45.515 22.1377 45.2943C22.2512 45.1111 22.3277 44.9071 22.3628 44.6942C22.4014 44.435 22.4192 44.173 22.4159 43.911C22.4255 43.5802 22.3932 43.2495 22.3198 42.9269C22.2543 42.6885 22.1299 42.4706 21.9581 42.2937ZM21.4521 44.3941C21.4479 44.5188 21.4168 44.6412 21.361 44.7527C21.3049 44.8586 21.2162 44.9434 21.1081 44.9942C20.9627 45.0593 20.8041 45.0889 20.6451 45.0807H20.1974V42.7387H20.7033C20.8557 42.7312 21.0075 42.7609 21.146 42.8251C21.2475 42.8834 21.3281 42.9724 21.3762 43.0794C21.4299 43.2004 21.4591 43.331 21.4622 43.4634C21.4622 43.6084 21.4622 43.7609 21.4622 43.9211C21.4622 44.0813 21.4723 44.2466 21.4622 44.3941H21.4521Z"
                  />
                  <path
                    fill="var(--icon-color, #000)" d="M26.6077 41.8107H25.8032L24.2854 48.6994H25.2669L25.5553 47.2194H26.8935L27.1819 48.6994H28.1635L26.6077 41.8107ZM25.702 46.2811L26.1852 43.784H26.2029L26.6836 46.2811H25.702Z"
                  />
                  <path
                    fill="var(--icon-color, #000)" d="M32.9497 45.9607H32.932L31.4496 41.8107H30.506V48.6994H31.4875V44.557H31.5078L33.0079 48.6994H33.9312V41.8107H32.9497V45.9607Z"
                  />
                  <path
                    fill="var(--icon-color, #000)" d="M38.9476 41.8107L38.1583 44.5494H38.1381L37.3488 41.8107H36.3091L37.6574 45.7878V48.6994H38.639V45.7878L39.9873 41.8107H38.9476Z"
                  />
                  <path
                    fill="var(--icon-color, #000)" d="M0 50.6445H0.473058V51.9719H0.794333V50.6445H1.26486V50.3724H0V50.6445Z"
                  />
                  <path
                    fill="var(--icon-color, #000)" d="M3.97672 50.3724L3.35693 51.9719H3.69845L3.82999 51.6083H4.46748L4.60409 51.9719H4.95319L4.31823 50.3724H3.97672ZM3.92612 51.3387L4.14368 50.7462L4.36123 51.3387H3.92612Z"
                  />
                  <path
                    fill="var(--icon-color, #000)" d="M7.90793 51.3821H8.27727V51.5881C8.16941 51.6746 8.03576 51.722 7.89781 51.7229C7.8333 51.7265 7.76886 51.7145 7.70988 51.688C7.65091 51.6614 7.59911 51.6211 7.55883 51.5703C7.47402 51.4485 7.43217 51.3017 7.43993 51.1533C7.43993 50.7973 7.59424 50.6193 7.90034 50.6193C7.98091 50.6112 8.06168 50.6325 8.12804 50.6791C8.19439 50.7257 8.24194 50.7947 8.26209 50.8735L8.57831 50.8125C8.51001 50.4997 8.28486 50.3421 7.90034 50.3421C7.69468 50.3366 7.4947 50.4103 7.34127 50.5481C7.26069 50.6276 7.19834 50.7239 7.15858 50.8302C7.11882 50.9365 7.10261 51.0502 7.11107 51.1634C7.10175 51.3823 7.17493 51.5966 7.31598 51.7636C7.39434 51.8444 7.4892 51.9071 7.59401 51.9475C7.69883 51.9879 7.8111 52.0049 7.92311 51.9975C8.17338 52.0045 8.41652 51.9133 8.60108 51.7432V51.1126H7.90793V51.3821Z"
                  />
                  <path
                    fill="var(--icon-color, #000)" d="M11.9226 50.3724H11.5988V51.9719H12.7194V51.6998H11.9226V50.3724Z"
                  />
                  <path d="M15.3175 50.3724H14.9937V51.9719H15.3175V50.3724Z" />
                  <path
                    fill="var(--icon-color, #000)" d="M18.6365 51.4405L17.9813 50.3724H17.6676V51.9719H17.9686V50.9268L18.6112 51.9719H18.9325V50.3724H18.6365V51.4405Z"
                  />
                  <path
                    fill="var(--icon-color, #000)" d="M21.6368 51.2675H22.4337V50.9954H21.6368V50.6445H22.4944V50.3724H21.313V51.9719H22.5273V51.6998H21.6368V51.2675Z"
                  />
                  <path
                    fill="var(--icon-color, #000)" d="M28.9122 51.0031H28.2823V50.3724H27.9611V51.9719H28.2823V51.2726H28.9122V51.9719H29.2335V50.3724H28.9122V51.0031Z"
                  />
                  <path
                    fill="var(--icon-color, #000)" d="M31.9302 51.2675H32.7296V50.9954H31.9302V50.6445H32.7903V50.3724H31.6089V51.9719H32.8206V51.6998H31.9302V51.2675Z"
                  />
                  <path
                    fill="var(--icon-color, #000)" d="M36.0233 51.2676C36.3015 51.2244 36.4432 51.0769 36.4432 50.8226C36.4513 50.7546 36.441 50.6856 36.4134 50.623C36.3858 50.5603 36.3419 50.5063 36.2863 50.4666C36.1415 50.3938 35.9799 50.3614 35.8183 50.3725H35.1404V51.972H35.4617V51.3032H35.5249C35.5934 51.299 35.6619 51.3112 35.7247 51.3388C35.7717 51.3678 35.8108 51.4079 35.8386 51.4558L36.1877 51.9644H36.5722L36.3774 51.6516C36.2913 51.4972 36.1699 51.3656 36.0233 51.2676ZM35.6994 51.0464H35.4617V50.6446H35.7146C35.8248 50.6357 35.9357 50.6486 36.041 50.6827C36.0644 50.7034 36.0828 50.7291 36.095 50.7579C36.1072 50.7867 36.1127 50.8179 36.1113 50.8492C36.1098 50.8804 36.1014 50.911 36.0866 50.9385C36.0718 50.966 36.051 50.9899 36.0258 51.0082C35.9202 51.0406 35.8096 51.0535 35.6994 51.0464Z"
                  />
                </symbol>
                <symbol id="group3" viewBox="0 0 44 41">
                  <path
                    fill="var(--icon-color, #000)" d="M6.80982 40.2233C6.82594 40.2236 6.8418 40.2268 6.85649 40.2324C6.87118 40.2381 6.88441 40.2462 6.89539 40.2563L7.11622 40.4639C6.94481 40.6319 6.73295 40.7662 6.49514 40.8578C6.21665 40.9577 5.91652 41.0059 5.61459 40.9993C5.33087 41.0043 5.04899 40.9593 4.78649 40.8672C4.5497 40.7826 4.33695 40.6555 4.16265 40.4945C3.98476 40.3275 3.84773 40.1319 3.75964 39.919C3.66316 39.6817 3.61553 39.4319 3.61886 39.1807C3.61494 38.9279 3.66644 38.6766 3.77068 38.44C3.86711 38.2258 4.01256 38.0301 4.19853 37.8645C4.38702 37.702 4.6125 37.5744 4.86102 37.4894C5.13289 37.3994 5.4224 37.3545 5.71396 37.3573C5.9848 37.3517 6.2542 37.3926 6.50618 37.4776C6.72481 37.5587 6.92554 37.6712 7.09966 37.8102L6.91471 38.0319C6.90194 38.0475 6.88606 38.0611 6.86779 38.072C6.84597 38.0848 6.8196 38.0907 6.79326 38.0886C6.76461 38.0869 6.73699 38.0787 6.71321 38.065L6.61384 38.006L6.47582 37.9305C6.41624 37.9025 6.35444 37.8781 6.29088 37.8574C6.209 37.8324 6.12503 37.8126 6.03968 37.7984C5.93136 37.7814 5.82134 37.7735 5.7112 37.7748C5.50125 37.7726 5.29289 37.8063 5.09841 37.8739C4.91703 37.9365 4.75331 38.0314 4.61811 38.1522C4.48046 38.2807 4.3744 38.4315 4.30619 38.5957C4.22844 38.7835 4.19013 38.9815 4.19301 39.1807C4.1897 39.3829 4.228 39.5841 4.30619 39.7751C4.37354 39.9378 4.47765 40.0877 4.61258 40.2162C4.73901 40.336 4.89572 40.4295 5.0708 40.4898C5.25098 40.5536 5.44439 40.5857 5.63943 40.5842C5.7521 40.5856 5.86472 40.5793 5.9762 40.5653C6.15822 40.5463 6.33282 40.4923 6.48686 40.4072C6.56412 40.3637 6.63706 40.3148 6.70493 40.261C6.7333 40.2379 6.77063 40.2244 6.80982 40.2233Z"
                  />
                  <path
                    fill="var(--icon-color, #000)" d="M13.1861 39.1803C13.1896 39.4305 13.139 39.6792 13.0371 39.9138C12.9471 40.1266 12.8054 40.3207 12.6213 40.4834C12.4371 40.646 12.2148 40.7734 11.9688 40.8573C11.4284 41.0334 10.831 41.0334 10.2906 40.8573C10.0462 40.7721 9.82526 40.6444 9.64188 40.4822C9.45787 40.3167 9.31513 40.1209 9.22231 39.9067C9.02347 39.4317 9.02347 38.9124 9.22231 38.4373C9.31648 38.2231 9.45904 38.0267 9.64188 37.8595C9.82682 37.7024 10.0476 37.5796 10.2906 37.4986C10.8303 37.3193 11.4291 37.3193 11.9688 37.4986C12.214 37.5837 12.4359 37.7114 12.6203 37.8736C12.802 38.0376 12.9437 38.2308 13.0371 38.442C13.1393 38.6782 13.1899 38.9285 13.1861 39.1803ZM12.6065 39.1803C12.6108 38.9801 12.5753 38.7807 12.5016 38.5906C12.4397 38.4278 12.3392 38.2777 12.2062 38.1496C12.0768 38.0284 11.9174 37.9333 11.7397 37.8713C11.347 37.7423 10.9123 37.7423 10.5197 37.8713C10.3419 37.9333 10.1826 38.0284 10.0532 38.1496C9.91837 38.2769 9.81675 38.4272 9.75506 38.5906C9.61461 38.9746 9.61461 39.386 9.75506 39.7699C9.81736 39.9331 9.9189 40.0833 10.0532 40.211C10.1828 40.3315 10.3421 40.4257 10.5197 40.487C10.913 40.6126 11.3463 40.6126 11.7397 40.487C11.9173 40.4257 12.0766 40.3315 12.2062 40.211C12.3386 40.0826 12.4391 39.9325 12.5016 39.7699C12.5757 39.5799 12.6111 39.3805 12.6065 39.1803Z"
                  />
                  <path
                    fill="var(--icon-color, #000)" d="M17.5365 39.7987L17.5944 39.9308C17.6165 39.8836 17.6358 39.8412 17.6579 39.7987C17.679 39.7544 17.7029 39.7111 17.7297 39.669L19.1402 37.4781C19.1678 37.4404 19.1927 37.4168 19.2203 37.4097C19.2578 37.4 19.297 37.396 19.3362 37.3979H19.753V40.9614H19.2589V38.3413C19.2589 38.3083 19.2589 38.2705 19.2589 38.2304C19.2562 38.1896 19.2562 38.1486 19.2589 38.1078L17.8401 40.3293C17.8221 40.3626 17.7933 40.3908 17.757 40.4104C17.7208 40.4301 17.6787 40.4404 17.6358 40.4402H17.5558C17.5128 40.4407 17.4706 40.4305 17.4343 40.4108C17.398 40.3911 17.3692 40.3628 17.3515 40.3293L15.8913 38.0937C15.8913 38.1361 15.8913 38.1786 15.8913 38.221C15.8913 38.2635 15.8913 38.3012 15.8913 38.3342V40.9543H15.4138V37.3979H15.8306C15.8697 37.396 15.909 37.4 15.9465 37.4097C15.9807 37.4242 16.008 37.4484 16.0238 37.4781L17.4647 39.6714C17.493 39.7119 17.517 39.7545 17.5365 39.7987Z"
                  />
                  <path
                    fill="var(--icon-color, #000)" d="M22.8447 39.6217V40.9564H22.2926V37.3978H23.5237C23.7561 37.394 23.9878 37.4202 24.211 37.4756C24.3897 37.5189 24.5554 37.5945 24.6969 37.6973C24.8195 37.7937 24.914 37.9132 24.9729 38.0463C25.0381 38.1915 25.0699 38.346 25.0667 38.5015C25.0692 38.6576 25.0344 38.8124 24.9646 38.9566C24.8983 39.0932 24.7963 39.215 24.6665 39.3127C24.5249 39.4198 24.3584 39.5002 24.1779 39.5486C23.963 39.6072 23.7382 39.6351 23.5127 39.6311L22.8447 39.6217ZM22.8447 39.2396H23.5127C23.6578 39.2412 23.8022 39.2229 23.9405 39.1854C24.0546 39.1526 24.1598 39.1004 24.2497 39.0321C24.3326 38.9668 24.3968 38.8862 24.4374 38.7963C24.4826 38.7012 24.5051 38.5994 24.5036 38.4968C24.5101 38.3978 24.4912 38.2989 24.4483 38.2069C24.4054 38.1148 24.3395 38.0319 24.2552 37.9638C24.0443 37.8231 23.7794 37.755 23.5127 37.7728H22.8447V39.2396Z"
                  />
                  <path
                    fill="var(--icon-color, #000)" d="M30.2645 40.9613H29.8283C29.7846 40.9627 29.7416 40.951 29.7069 40.9282C29.6756 40.906 29.651 40.8777 29.6351 40.8457L29.2597 39.9848H27.3744L26.9852 40.8457C26.9709 40.8772 26.9471 40.9048 26.9162 40.9259C26.8811 40.95 26.837 40.9626 26.792 40.9613H26.3558L28.012 37.3975H28.5862L30.2645 40.9613ZM27.5317 39.6381H29.0886L28.4316 38.1876C28.3814 38.0785 28.3399 37.9666 28.3074 37.8527L28.2439 38.039C28.2246 38.0956 28.2025 38.1475 28.1832 38.1899L27.5317 39.6381Z"
                  />
                  <path
                    fill="var(--icon-color, #000)" d="M32.6495 37.414C32.6825 37.4295 32.7109 37.4513 32.7323 37.4777L35.1476 40.1641C35.1476 40.1216 35.1476 40.0792 35.1476 40.0391C35.1476 39.999 35.1476 39.9589 35.1476 39.9212V37.3975H35.6417V40.9613H35.3657C35.3265 40.9623 35.2876 40.955 35.2525 40.9401C35.2184 40.9231 35.1884 40.9006 35.1642 40.874L32.7517 38.19C32.7543 38.2309 32.7543 38.2718 32.7517 38.3126C32.7517 38.3527 32.7517 38.3881 32.7517 38.4211V40.9613H32.2576V37.3975H32.5502C32.5843 37.3967 32.6182 37.4024 32.6495 37.414Z"
                  />
                  <path
                    fill="var(--icon-color, #000)" d="M39.7104 39.5438V40.9589H39.1583V39.5438L37.6318 37.3975H38.1259C38.1685 37.3954 38.2106 37.4062 38.2446 37.4282C38.2747 37.4511 38.2999 37.4782 38.3192 37.5084L39.2743 38.8928C39.3129 38.9518 39.346 39.006 39.3736 39.0579C39.4012 39.1098 39.4233 39.1593 39.4426 39.2089L39.5144 39.0556C39.5412 38.9995 39.5726 38.9451 39.6083 38.8928L40.5495 37.4989C40.5693 37.4711 40.5935 37.4457 40.6213 37.4235C40.6541 37.399 40.6966 37.3864 40.74 37.3881H41.2396L39.7104 39.5438Z"
                  />
                  <path
                    fill="var(--icon-color, #000)" d="M17.2632 31.417C17.5033 31.4429 17.7462 31.4642 17.9919 31.483C21.7165 30.0595 24.8673 27.7295 27.0506 24.7844C29.2338 21.8393 30.3527 18.4097 30.2672 14.9243L26.1626 11.4172C26.9972 15.1281 26.6068 18.9642 25.0351 22.4963C23.4634 26.0284 20.7724 29.1171 17.2632 31.417Z"
                  />
                  <path
                    fill="var(--icon-color, #000)" d="M15.7975 31.2539L15.9079 31.2728C19.6578 28.9811 22.5168 25.7809 24.1151 22.0861C25.7135 18.3912 25.9776 14.3717 24.8735 10.5472L19.0271 5.55212C21.3918 9.65797 22.3436 14.253 21.7719 18.8029C21.2002 23.3528 19.1284 27.6705 15.7975 31.2539Z"
                  />
                  <path
                    fill="var(--icon-color, #000)" d="M35.6251 19.0424C34.6318 22.872 32.2195 26.3258 28.7463 28.8911C27.7319 29.6444 26.6378 30.3155 25.478 30.8957C28.3062 30.1855 30.9057 28.9298 33.0761 27.2255C35.2465 25.5213 36.9298 23.4139 37.9962 21.0659L35.6251 19.0424Z"
                  />
                  <path
                    fill="var(--icon-color, #000)" d="M34.6948 18.4784L31.3189 15.594C31.2544 18.8825 30.1602 22.0963 28.15 24.9012C26.1399 27.7062 23.2871 30 19.8883 31.5442H19.9049C20.6623 31.5439 21.419 31.5053 22.1711 31.4286C25.3475 30.3209 28.1535 28.5586 30.3388 26.2989C32.524 24.0392 34.0206 21.3525 34.6948 18.4784Z"
                  />
                  <path
                    fill="var(--icon-color, #000)" d="M16.2861 3.4457L12.2587 0C8.65843 1.18869 5.56201 3.27837 3.37474 5.99553C1.18746 8.7127 0.0112346 11.9308 0 15.2285H0C0.0134937 18.8725 1.44899 22.4085 4.0793 25.2769C6.7096 28.1454 10.3845 30.1824 14.5222 31.0656C18.216 27.2205 20.3786 22.4693 20.6958 17.5023C21.013 12.5353 19.4683 7.6113 16.2861 3.4457Z"
                  />
                </symbol>
                <symbol id="group4" viewBox="0 0 84 41">
                  <path
                    fill="var(--icon-color, #000)" d="M13.0782 12.5179H13.0753C10.6897 12.5179 8.75574 14.2616 8.75574 16.4124V16.415C8.75574 18.5658 10.6897 20.3094 13.0753 20.3094H13.0782C15.4638 20.3094 17.3978 18.5658 17.3978 16.415V16.4124C17.3978 14.2616 15.4638 12.5179 13.0782 12.5179Z"
                  />
                  <path
                    fill="var(--icon-color, #000)" d="M44.9614 11.273C44.9547 8.2855 43.6356 5.42211 41.2929 3.30942C38.9502 1.19673 35.7746 0.00678345 32.4611 0V0C29.1466 0.00542712 25.9696 1.19477 23.6257 3.30761C21.2817 5.42045 19.9619 8.28461 19.9551 11.273V27.7472C19.9551 27.7472 44.9586 25.2364 44.9614 11.2755V11.273Z"
                  />
                  <path
                    fill="var(--icon-color, #000)" d="M0 33.1543C0.00600975 35.233 0.924346 37.2251 2.55434 38.6952C4.18433 40.1653 6.39345 40.9939 8.69898 41C11.004 40.9939 13.2127 40.1657 14.8426 38.6961C16.4725 37.2265 17.3912 35.2351 17.398 33.1569V21.6938C17.398 21.6938 0 23.4422 0 33.1543ZM8.69898 35.2082C8.24844 35.2082 7.80802 35.0877 7.43341 34.862C7.0588 34.6364 6.76683 34.3156 6.59441 33.9403C6.422 33.565 6.37689 33.152 6.46479 32.7536C6.55268 32.3552 6.76964 31.9893 7.08822 31.702C7.40679 31.4148 7.81269 31.2192 8.25457 31.1399C8.69645 31.0607 9.15448 31.1014 9.57072 31.2568C9.98696 31.4123 10.3427 31.6755 10.593 32.0133C10.8433 32.351 10.9769 32.7481 10.9769 33.1543C10.9781 33.4247 10.92 33.6926 10.806 33.9427C10.692 34.1927 10.5244 34.4201 10.3128 34.6116C10.1011 34.8031 9.84963 34.9551 9.5727 35.0588C9.29576 35.1625 8.99885 35.2159 8.69898 35.2159V35.2082Z"
                  />
                  <path
                    fill="var(--icon-color, #000)" d="M24.6089 31.515V35.7806H23.73V31.515H24.6089ZM26.3081 33.3373V34.0228H24.3687V33.3373H26.3081ZM26.5132 31.515V32.2035H24.3687V31.515H26.5132ZM30.5269 33.5482V33.7504C30.5269 34.0746 30.4829 34.3656 30.395 34.6234C30.3071 34.8812 30.1831 35.101 30.0229 35.2826C29.8628 35.4623 29.6714 35.6 29.4487 35.6957C29.228 35.7914 28.9829 35.8392 28.7134 35.8392C28.4458 35.8392 28.2007 35.7914 27.978 35.6957C27.7573 35.6 27.5659 35.4623 27.4038 35.2826C27.2417 35.101 27.1157 34.8812 27.0259 34.6234C26.938 34.3656 26.894 34.0746 26.894 33.7504V33.5482C26.894 33.222 26.938 32.931 27.0259 32.6752C27.1138 32.4174 27.2378 32.1976 27.3979 32.016C27.5601 31.8344 27.7515 31.6957 27.9722 31.6C28.1948 31.5043 28.4399 31.4564 28.7075 31.4564C28.9771 31.4564 29.2222 31.5043 29.4429 31.6C29.6655 31.6957 29.8569 31.8344 30.0171 32.016C30.1792 32.1976 30.3042 32.4174 30.3921 32.6752C30.4819 32.931 30.5269 33.222 30.5269 33.5482ZM29.6392 33.7504V33.5424C29.6392 33.3158 29.6187 33.1166 29.5776 32.9447C29.5366 32.7728 29.4761 32.6283 29.396 32.5111C29.3159 32.3939 29.2183 32.306 29.103 32.2474C28.9878 32.1869 28.856 32.1566 28.7075 32.1566C28.5591 32.1566 28.4272 32.1869 28.312 32.2474C28.1987 32.306 28.1021 32.3939 28.022 32.5111C27.9438 32.6283 27.8843 32.7728 27.8433 32.9447C27.8022 33.1166 27.7817 33.3158 27.7817 33.5424V33.7504C27.7817 33.975 27.8022 34.1742 27.8433 34.348C27.8843 34.5199 27.9448 34.6654 28.0249 34.7845C28.105 34.9017 28.2026 34.9906 28.3179 35.0511C28.4331 35.1117 28.5649 35.142 28.7134 35.142C28.8618 35.142 28.9937 35.1117 29.1089 35.0511C29.2241 34.9906 29.3208 34.9017 29.3989 34.7845C29.4771 34.6654 29.5366 34.5199 29.5776 34.348C29.6187 34.1742 29.6392 33.975 29.6392 33.7504ZM33.3804 34.6644C33.3804 34.5883 33.3687 34.5199 33.3452 34.4594C33.3237 34.3969 33.2827 34.3402 33.2222 34.2894C33.1616 34.2367 33.0767 34.1849 32.9673 34.1342C32.8579 34.0834 32.7163 34.0306 32.5425 33.976C32.3491 33.9135 32.1655 33.8431 31.9917 33.765C31.8198 33.6869 31.6675 33.5961 31.5347 33.4926C31.4038 33.3871 31.3003 33.265 31.2241 33.1263C31.1499 32.9877 31.1128 32.8265 31.1128 32.6429C31.1128 32.4652 31.1519 32.3041 31.23 32.1595C31.3081 32.0131 31.4175 31.8881 31.5581 31.7845C31.6987 31.6791 31.8647 31.598 32.0562 31.5414C32.2495 31.4847 32.4614 31.4564 32.6919 31.4564C33.0063 31.4564 33.2808 31.5131 33.5151 31.6263C33.7495 31.7396 33.9312 31.8949 34.0601 32.0922C34.1909 32.2894 34.2563 32.515 34.2563 32.7689H33.3833C33.3833 32.6439 33.3569 32.5345 33.3042 32.4408C33.2534 32.3451 33.1753 32.2699 33.0698 32.2152C32.9663 32.1605 32.8354 32.1332 32.6772 32.1332C32.5249 32.1332 32.3979 32.1566 32.2964 32.2035C32.1948 32.2484 32.1187 32.3099 32.0679 32.3881C32.0171 32.4642 31.9917 32.5502 31.9917 32.6459C31.9917 32.7181 32.0093 32.7836 32.0444 32.8422C32.0815 32.9008 32.1362 32.9554 32.2085 33.0062C32.2808 33.057 32.3696 33.1049 32.4751 33.1498C32.5806 33.1947 32.7026 33.2386 32.8413 33.2816C33.0737 33.3519 33.2778 33.431 33.4536 33.5189C33.6313 33.6068 33.7798 33.7054 33.8989 33.8148C34.0181 33.9242 34.1079 34.0482 34.1685 34.1869C34.229 34.3256 34.2593 34.4828 34.2593 34.6586C34.2593 34.8441 34.2231 35.0101 34.1509 35.1566C34.0786 35.3031 33.9741 35.4271 33.8374 35.5287C33.7007 35.6302 33.5376 35.7074 33.3481 35.7601C33.1587 35.8129 32.9468 35.8392 32.7124 35.8392C32.5015 35.8392 32.2935 35.8119 32.0884 35.7572C31.8833 35.7006 31.6968 35.6156 31.5288 35.5023C31.3628 35.389 31.23 35.2445 31.1304 35.0687C31.0308 34.8929 30.981 34.6849 30.981 34.4447H31.8628C31.8628 34.5775 31.8833 34.6898 31.9243 34.7816C31.9653 34.8734 32.0229 34.9476 32.0972 35.0043C32.1733 35.0609 32.2632 35.1019 32.3667 35.1273C32.4722 35.1527 32.5874 35.1654 32.7124 35.1654C32.8647 35.1654 32.9897 35.1439 33.0874 35.101C33.187 35.058 33.2603 34.9984 33.3071 34.9222C33.356 34.8461 33.3804 34.7601 33.3804 34.6644ZM36.7642 31.515V35.7806H35.8882V31.515H36.7642ZM38.0767 31.515V32.2035H34.5962V31.515H38.0767ZM41.4399 35.0951V35.7806H39.1694V35.0951H41.4399ZM39.4565 31.515V35.7806H38.5776V31.515H39.4565ZM41.144 33.2523V33.9203H39.1694V33.2523H41.144ZM41.437 31.515V32.2035H39.1694V31.515H41.437ZM41.9526 31.515H43.5435C43.8696 31.515 44.1499 31.5638 44.3843 31.6615C44.6206 31.7592 44.8022 31.9037 44.9292 32.0951C45.0562 32.2865 45.1196 32.5219 45.1196 32.8011C45.1196 33.0297 45.0806 33.226 45.0024 33.39C44.9263 33.5521 44.8179 33.6879 44.6772 33.7972C44.5386 33.9047 44.3755 33.9906 44.188 34.0551L43.9097 34.2015H42.5269L42.521 33.516H43.5493C43.7036 33.516 43.8315 33.4886 43.9331 33.434C44.0347 33.3793 44.1108 33.3031 44.1616 33.2054C44.2144 33.1078 44.2407 32.9945 44.2407 32.8656C44.2407 32.7289 44.2153 32.6107 44.1646 32.5111C44.1138 32.4115 44.0366 32.3353 43.9331 32.2826C43.8296 32.2299 43.6997 32.2035 43.5435 32.2035H42.8315V35.7806H41.9526V31.515ZM44.3374 35.7806L43.3647 33.8793L44.2935 33.8734L45.2778 35.7396V35.7806H44.3374ZM48.9517 34.2601H47.8647V33.5746H48.9517C49.1196 33.5746 49.2563 33.5472 49.3618 33.4926C49.4673 33.4359 49.5444 33.3578 49.5933 33.2582C49.6421 33.1586 49.6665 33.0463 49.6665 32.9213C49.6665 32.7943 49.6421 32.6761 49.5933 32.5668C49.5444 32.4574 49.4673 32.3695 49.3618 32.3031C49.2563 32.2367 49.1196 32.2035 48.9517 32.2035H48.1694V35.7806H47.2905V31.515H48.9517C49.2856 31.515 49.5718 31.5756 49.8101 31.6967C50.0503 31.8158 50.2339 31.9808 50.3608 32.1918C50.4878 32.4027 50.5513 32.6439 50.5513 32.9154C50.5513 33.1908 50.4878 33.4291 50.3608 33.6302C50.2339 33.8314 50.0503 33.9867 49.8101 34.0961C49.5718 34.2054 49.2856 34.2601 48.9517 34.2601ZM54.02 35.0951V35.7806H51.7495V35.0951H54.02ZM52.0366 31.515V35.7806H51.1577V31.515H52.0366ZM53.7241 33.2523V33.9203H51.7495V33.2523H53.7241ZM54.0171 31.515V32.2035H51.7495V31.515H54.0171ZM56.4985 31.515V35.7806H55.6226V31.515H56.4985ZM57.811 31.515V32.2035H54.3306V31.515H57.811ZM61.1743 35.0951V35.7806H58.9038V35.0951H61.1743ZM59.1909 31.515V35.7806H58.312V31.515H59.1909ZM60.8784 33.2523V33.9203H58.9038V33.2523H60.8784ZM61.1714 31.515V32.2035H58.9038V31.515H61.1714ZM61.687 31.515H63.2778C63.604 31.515 63.8843 31.5638 64.1187 31.6615C64.355 31.7592 64.5366 31.9037 64.6636 32.0951C64.7905 32.2865 64.854 32.5219 64.854 32.8011C64.854 33.0297 64.8149 33.226 64.7368 33.39C64.6606 33.5521 64.5522 33.6879 64.4116 33.7972C64.2729 33.9047 64.1099 33.9906 63.9224 34.0551L63.644 34.2015H62.2612L62.2554 33.516H63.2837C63.438 33.516 63.5659 33.4886 63.6675 33.434C63.769 33.3793 63.8452 33.3031 63.896 33.2054C63.9487 33.1078 63.9751 32.9945 63.9751 32.8656C63.9751 32.7289 63.9497 32.6107 63.8989 32.5111C63.8481 32.4115 63.771 32.3353 63.6675 32.2826C63.564 32.2299 63.4341 32.2035 63.2778 32.2035H62.5659V35.7806H61.687V31.515ZM64.0718 35.7806L63.0991 33.8793L64.0278 33.8734L65.0122 35.7396V35.7806H64.0718ZM67.7515 34.6644C67.7515 34.5883 67.7397 34.5199 67.7163 34.4594C67.6948 34.3969 67.6538 34.3402 67.5933 34.2894C67.5327 34.2367 67.4478 34.1849 67.3384 34.1342C67.229 34.0834 67.0874 34.0306 66.9136 33.976C66.7202 33.9135 66.5366 33.8431 66.3628 33.765C66.1909 33.6869 66.0386 33.5961 65.9058 33.4926C65.7749 33.3871 65.6714 33.265 65.5952 33.1263C65.521 32.9877 65.4839 32.8265 65.4839 32.6429C65.4839 32.4652 65.5229 32.3041 65.6011 32.1595C65.6792 32.0131 65.7886 31.8881 65.9292 31.7845C66.0698 31.6791 66.2358 31.598 66.4272 31.5414C66.6206 31.4847 66.8325 31.4564 67.063 31.4564C67.3774 31.4564 67.6519 31.5131 67.8862 31.6263C68.1206 31.7396 68.3022 31.8949 68.4312 32.0922C68.562 32.2894 68.6274 32.515 68.6274 32.7689H67.7544C67.7544 32.6439 67.728 32.5345 67.6753 32.4408C67.6245 32.3451 67.5464 32.2699 67.4409 32.2152C67.3374 32.1605 67.2065 32.1332 67.0483 32.1332C66.896 32.1332 66.769 32.1566 66.6675 32.2035C66.5659 32.2484 66.4897 32.3099 66.439 32.3881C66.3882 32.4642 66.3628 32.5502 66.3628 32.6459C66.3628 32.7181 66.3804 32.7836 66.4155 32.8422C66.4526 32.9008 66.5073 32.9554 66.5796 33.0062C66.6519 33.057 66.7407 33.1049 66.8462 33.1498C66.9517 33.1947 67.0737 33.2386 67.2124 33.2816C67.4448 33.3519 67.6489 33.431 67.8247 33.5189C68.0024 33.6068 68.1509 33.7054 68.27 33.8148C68.3892 33.9242 68.479 34.0482 68.5396 34.1869C68.6001 34.3256 68.6304 34.4828 68.6304 34.6586C68.6304 34.8441 68.5942 35.0101 68.522 35.1566C68.4497 35.3031 68.3452 35.4271 68.2085 35.5287C68.0718 35.6302 67.9087 35.7074 67.7192 35.7601C67.5298 35.8129 67.3179 35.8392 67.0835 35.8392C66.8726 35.8392 66.6646 35.8119 66.4595 35.7572C66.2544 35.7006 66.0679 35.6156 65.8999 35.5023C65.7339 35.389 65.6011 35.2445 65.5015 35.0687C65.4019 34.8929 65.3521 34.6849 65.3521 34.4447H66.2339C66.2339 34.5775 66.2544 34.6898 66.2954 34.7816C66.3364 34.8734 66.394 34.9476 66.4683 35.0043C66.5444 35.0609 66.6343 35.1019 66.7378 35.1273C66.8433 35.1527 66.9585 35.1654 67.0835 35.1654C67.2358 35.1654 67.3608 35.1439 67.4585 35.101C67.5581 35.058 67.6313 34.9984 67.6782 34.9222C67.7271 34.8461 67.7515 34.7601 67.7515 34.6644Z"
                  />
                </symbol>
                <symbol id="group5" viewBox="0 0 63 46">
                  <path
                    fill="var(--icon-color, #000)" d="M4.79189 38.373C5.03736 38.6465 5.16811 38.9891 5.16126 39.3407C5.17379 39.57 5.12885 39.7989 5.02977 40.0105C4.93069 40.2221 4.78001 40.4109 4.5889 40.563C4.11204 40.8872 3.52126 41.0457 2.92505 41.0093H0V34.8769H2.86515C3.43071 34.8431 3.99178 34.9871 4.45246 35.2844C4.63749 35.4238 4.78401 35.6 4.88045 35.7991C4.97689 35.9982 5.02062 36.2148 5.00819 36.4317C5.025 36.77 4.90698 37.1026 4.67542 37.3694C4.4531 37.6131 4.14588 37.782 3.80356 37.8488C4.19162 37.9125 4.54189 38.0983 4.79189 38.373ZM1.36103 37.4473H2.58562C2.86394 37.4659 3.14036 37.3935 3.3643 37.2436C3.45625 37.1686 3.52779 37.0755 3.57337 36.9716C3.61896 36.8677 3.63737 36.7558 3.62719 36.6445C3.63583 36.5335 3.61704 36.4222 3.57215 36.3186C3.52727 36.215 3.45742 36.1217 3.36763 36.0453C3.13699 35.8911 2.85198 35.8177 2.56566 35.8386H1.36103V37.4473ZM3.4841 39.799C3.58239 39.7222 3.65965 39.6261 3.70986 39.518C3.76008 39.4099 3.7819 39.2928 3.77361 39.1759C3.78111 39.0576 3.7583 38.9394 3.70694 38.8303C3.65559 38.7212 3.57707 38.6242 3.47745 38.5468C3.23785 38.3869 2.94319 38.3084 2.64552 38.3251H1.36103V40.0117H2.66216C2.95502 40.0269 3.24492 39.9519 3.4841 39.799Z"
                  />
                  <path
                    fill="var(--icon-color, #000)" d="M10.6487 41.0093L9.05471 38.6127H8.45573V41.0093H7.08472V34.8769H9.68032C10.3346 34.8358 10.9814 35.0224 11.4873 35.3982C11.8501 35.731 12.0689 36.1696 12.1043 36.6348C12.1397 37.1001 11.9893 37.5614 11.6803 37.9357C11.36 38.2659 10.9226 38.4861 10.4424 38.5588L12.1395 41.0093H10.6487ZM8.45573 37.7769H9.57716C10.3558 37.7769 10.7452 37.4673 10.7452 36.8482C10.7531 36.7217 10.7318 36.5952 10.6825 36.4766C10.6333 36.358 10.5571 36.2499 10.459 36.1591C10.2129 35.9749 9.89602 35.8855 9.57716 35.9105H8.44242L8.45573 37.7769Z"
                  />
                  <path
                    fill="var(--icon-color, #000)" d="M18.1426 39.7752H15.4106L14.928 41.0094H13.4905L15.9996 34.9459H17.5536L20.0527 41.0094H18.6151L18.1426 39.7752ZM17.7766 38.8465L16.7782 36.2581L15.7799 38.8465H17.7766Z"
                  />
                  <path
                    fill="var(--icon-color, #000)" d="M27.5234 41.0094H26.1624L23.1109 36.8392V41.0094H21.7532V34.877H23.1109L26.1624 39.0711V34.877H27.5234V41.0094Z"
                  />
                  <path
                    fill="var(--icon-color, #000)" d="M35.2903 39.5415C35.0089 40.0045 34.5801 40.3811 34.059 40.6229C33.4666 40.8923 32.8091 41.0251 32.1456 41.0094H29.723V34.877H32.1456C32.8079 34.8614 33.4646 34.991 34.059 35.2545C34.58 35.4908 35.0092 35.8637 35.2903 36.324C35.5704 36.8227 35.7164 37.3738 35.7164 37.9327C35.7164 38.4916 35.5704 39.0427 35.2903 39.5415ZM33.7329 39.3947C34.1213 38.9873 34.3349 38.4681 34.3349 37.9312C34.3349 37.3943 34.1213 36.8752 33.7329 36.4678C33.2634 36.0988 32.6511 35.9114 32.0291 35.9465H31.0841V39.9159H32.0291C32.6511 39.951 33.2634 39.7637 33.7329 39.3947Z"
                  />
                  <path
                    fill="var(--icon-color, #000)" d="M18.9945 0.766724C18.9945 0.766724 36.5614 6.73736 36.1887 15.3773V29.9908C36.1887 29.9908 18.6351 24.0172 19.0012 15.3773L18.9945 0.766724Z"
                  />
                  <path
                    fill="var(--icon-color, #000)" d="M51.8389 26.5694C55.1565 24.5139 58.9941 23.2408 63 22.8666V18.292C58.3842 19.8935 54.4686 22.7975 51.8389 26.5694Z"
                  />
                  <path
                    fill="var(--icon-color, #000)" d="M49.8456 27.9478C52.5611 23.0253 57.2686 19.2268 63 17.3336V4.1521C63 4.1521 37.9823 12.6572 38.5114 24.9609V45.7668C38.5114 45.7668 39.6262 45.3863 41.3799 44.6733C41.3799 44.0083 41.3799 43.3372 41.4598 42.6631C41.9776 36.9511 44.9939 31.6581 49.8456 27.9478Z"
                  />
                  <path
                    fill="var(--icon-color, #000)" d="M47.4663 35.6769C47.5978 34.234 47.891 32.8067 48.3415 31.4169C45.3205 34.6211 43.491 38.5971 43.1104 42.7859C43.0738 43.1814 43.0538 43.5768 43.0438 43.9843C44.4648 43.3701 46.1186 42.6032 47.8557 41.7015C47.4124 39.7197 47.2813 37.6916 47.4663 35.6769Z"
                  />
                  <path
                    fill="var(--icon-color, #000)" d="M48.4612 35.7519C48.2947 37.5746 48.3988 39.4092 48.7707 41.2072C55.6058 37.5254 63.2861 31.8363 62.99 24.961V24.3618C58.1066 24.8537 53.5377 26.7756 49.9853 29.8321C49.1536 31.7263 48.6399 33.7214 48.4612 35.7519Z"
                  />
                </symbol>
                <symbol id="group6" viewBox="0 0 94 45">
                  <path
                    fill="var(--icon-color, #000)" d="M47.5293 21.4433C47.0853 20.8524 46.8729 20.1542 46.9233 19.4513V16.5632C46.9233 15.6779 47.1242 15.0051 47.5259 14.5448C47.9277 14.0845 48.6177 13.8554 49.596 13.8573C50.5153 13.8573 51.1679 14.0532 51.5537 14.4449C51.9746 14.9447 52.1794 15.556 52.1325 16.1725V16.8512H50.488V16.1637C50.4939 15.9386 50.4779 15.7136 50.4404 15.4909C50.4167 15.3386 50.3339 15.1977 50.2055 15.0913C50.0366 14.9766 49.8239 14.921 49.6096 14.9356C49.3843 14.9211 49.1609 14.9797 48.9832 15.1001C48.8399 15.218 48.7444 15.3725 48.7108 15.5408C48.6636 15.7765 48.642 16.0155 48.6461 16.2547V19.7598C48.6202 20.0979 48.6927 20.4363 48.8572 20.744C48.939 20.8482 49.0526 20.9307 49.1854 20.9826C49.3182 21.0344 49.465 21.0536 49.6096 21.0378C49.8203 21.0528 50.0293 20.9958 50.1918 20.8792C50.3258 20.7644 50.412 20.6147 50.437 20.4532C50.4754 20.2206 50.4925 19.9858 50.488 19.751V19.04H52.1325V19.6893C52.1787 20.3319 51.9789 20.9699 51.5639 21.505C51.186 21.9339 50.5425 22.1484 49.596 22.1484C48.6495 22.1484 47.9345 21.9193 47.5293 21.4433Z"
                  />
                  <path
                    fill="var(--icon-color, #000)" d="M54.3763 21.4727C53.961 21.0232 53.7533 20.368 53.7533 19.5013V16.4633C53.7533 15.6054 53.961 14.9561 54.3763 14.5154C54.7917 14.0747 55.4863 13.8554 56.46 13.8573C57.4269 13.8573 58.1181 14.0767 58.5334 14.5154C58.9488 14.9561 59.1599 15.6054 59.1599 16.4633V19.5013C59.1599 20.3592 58.9488 21.0173 58.5266 21.4697C58.1044 21.9222 57.4167 22.1484 56.46 22.1484C55.5033 22.1484 54.7951 21.9193 54.3763 21.4727ZM57.226 20.744C57.3748 20.4625 57.4425 20.154 57.4235 19.845V16.1255C57.4426 15.8224 57.376 15.5199 57.2294 15.2441C57.146 15.1377 57.0296 15.0538 56.8936 15.0019C56.7575 14.9499 56.6073 14.932 56.46 14.9503C56.3123 14.9325 56.1617 14.9506 56.0252 15.0025C55.8887 15.0544 55.7717 15.138 55.6871 15.2441C55.5374 15.5191 55.4695 15.8221 55.4897 16.1255V19.8626C55.469 20.1718 55.5368 20.4805 55.6871 20.7617C55.783 20.8564 55.9013 20.9324 56.034 20.9845C56.1667 21.0365 56.3108 21.0634 56.4566 21.0634C56.6024 21.0634 56.7465 21.0365 56.8792 20.9845C57.0119 20.9324 57.1302 20.8564 57.226 20.7617V20.744Z"
                  />
                  <path
                    fill="var(--icon-color, #000)" d="M61.1378 13.946H62.9083L64.2395 19.5512L65.6014 13.946H67.3242L67.4978 22.0365H66.2244L66.0883 16.4137L64.774 22.0365H63.7526L62.3907 16.3931L62.2648 22.0365H60.9778L61.1378 13.946Z"
                  />
                  <path
                    fill="var(--icon-color, #000)" d="M69.4829 13.946H72.2406C73.8295 13.946 74.6239 14.7118 74.6239 16.2433C74.6239 17.7102 73.7875 18.4427 72.1147 18.4407H71.175V22.0365H69.4727L69.4829 13.946ZM71.8389 17.4037C72.0071 17.4221 72.1779 17.4088 72.3396 17.3647C72.5012 17.3206 72.6499 17.2467 72.7752 17.1481C72.9704 16.8749 73.0565 16.554 73.0203 16.2345C73.0292 15.9877 73.0018 15.7409 72.9386 15.5001C72.9143 15.4196 72.8717 15.3442 72.8133 15.2781C72.7548 15.212 72.6817 15.1567 72.5981 15.1152C72.3618 15.0174 72.1006 14.973 71.8389 14.986H71.1784V17.4037H71.8389Z"
                  />
                  <path
                    fill="var(--icon-color, #000)" d="M77.0787 13.946H78.907L80.783 22.0365H79.1964L78.8253 20.171H77.1945L76.8132 22.0365H75.2028L77.0787 13.946ZM78.6415 19.2339L78.0048 15.8379L77.3681 19.2339H78.6415Z"
                  />
                  <path
                    fill="var(--icon-color, #000)" d="M82.2981 13.946H83.4897L85.7709 18.5612V13.946H87.1838V22.0365H86.0501L83.7553 17.2186V22.0365H82.2947L82.2981 13.946Z"
                  />
                  <path
                    fill="var(--icon-color, #000)" d="M90.4932 18.9516L88.5968 13.9573H90.1936L91.3512 17.1654L92.4373 13.9573H94L92.1274 18.9516V22.0363H90.4932V18.9516Z"
                  />
                  <path
                    fill="var(--icon-color, #000)" d="M50.1579 25.5736V25.9967H48.7688V29.2842H48.1866V25.9967H46.7906V25.5736H50.1579Z"
                  />
                  <path
                    fill="var(--icon-color, #000)" d="M54.5123 29.2844H54.0629C54.0173 29.2869 53.9722 29.2743 53.9369 29.2492C53.9029 29.2277 53.8769 29.1981 53.862 29.164L53.4603 28.2827H51.5332L51.1314 29.164C51.12 29.2009 51.0991 29.235 51.0702 29.2639C51.0345 29.2885 50.9897 29.301 50.9442 29.2991H50.4948L52.1971 25.5887H52.7895L54.5123 29.2844ZM51.6932 27.9066H53.3003L52.6193 26.3966C52.5691 26.2824 52.527 26.1657 52.4933 26.047C52.4695 26.1175 52.4491 26.1851 52.4286 26.2439L52.3674 26.3996L51.6932 27.9066Z"
                  />
                  <path
                    fill="var(--icon-color, #000)" d="M57.4472 28.9202C57.5538 28.925 57.6606 28.925 57.7672 28.9202C57.8593 28.912 57.9504 28.8972 58.0396 28.8761C58.123 28.8584 58.2049 28.8359 58.2848 28.8085C58.3597 28.7821 58.4346 28.7498 58.5129 28.7174V27.883H57.8319C57.8151 27.8838 57.7982 27.8816 57.7824 27.8766C57.7666 27.8715 57.7522 27.8637 57.74 27.8536C57.7288 27.8453 57.72 27.8349 57.7141 27.8232C57.7082 27.8115 57.7054 27.7988 57.706 27.786V27.501H59.027V28.9231C58.9192 28.9897 58.8053 29.0486 58.6865 29.0994C58.5651 29.1511 58.4386 29.1934 58.3086 29.2257C58.1694 29.2611 58.027 29.2866 57.883 29.3021C57.7179 29.3179 57.552 29.3258 57.3859 29.3256C57.0923 29.3278 56.8009 29.2809 56.5279 29.1875C56.273 29.0991 56.0414 28.9672 55.847 28.7997C55.6574 28.6305 55.5082 28.4309 55.4078 28.2121C55.3005 27.9661 55.2474 27.705 55.2512 27.4423C55.2476 27.1778 55.2995 26.9151 55.4044 26.6666C55.5023 26.4467 55.6518 26.2466 55.8436 26.079C56.0379 25.912 56.2696 25.7811 56.5245 25.6941C56.8161 25.5994 57.1255 25.5526 57.437 25.556C57.5955 25.5558 57.7537 25.5666 57.9102 25.5883C58.0486 25.6077 58.1844 25.6392 58.3154 25.6823C58.4345 25.7209 58.5486 25.7701 58.6559 25.8292C58.7602 25.8872 58.8593 25.952 58.9521 26.0231L58.7887 26.2523C58.7759 26.2732 58.7568 26.2908 58.7334 26.3032C58.7101 26.3156 58.6833 26.3224 58.6559 26.3228C58.6182 26.3218 58.5816 26.3116 58.5503 26.2934C58.4993 26.2699 58.4448 26.2406 58.3835 26.2053C58.3111 26.1661 58.2348 26.1327 58.1554 26.1054C58.0539 26.0703 57.9491 26.0427 57.8421 26.0231C57.6995 26.0005 57.5547 25.9896 57.4097 25.9908C57.1851 25.9887 56.9621 26.0236 56.7526 26.0936C56.5632 26.1592 56.3924 26.2595 56.2522 26.3875C56.1111 26.5209 56.0033 26.6779 55.9355 26.8488C55.7834 27.2506 55.7834 27.6838 55.9355 28.0857C56.01 28.2602 56.126 28.4194 56.276 28.5529C56.4156 28.6802 56.5851 28.7804 56.7731 28.8467C56.9896 28.9108 57.219 28.9359 57.4472 28.9202Z"
                  />
                  <path
                    fill="var(--icon-color, #000)" d="M62.8744 28.8611H64.7334V29.2842H62.3058V25.5736H62.888L62.8744 28.8611Z"
                  />
                  <path d="M66.6672 29.2842H66.085V25.5736H66.6672V29.2842Z" />
                  <path
                    fill="var(--icon-color, #000)" d="M68.8325 25.5913C68.8671 25.6083 68.8973 25.6313 68.9211 25.6589L71.4098 28.4559C71.4065 28.4119 71.4065 28.3677 71.4098 28.3237C71.4098 28.2826 71.4098 28.2414 71.4098 28.2032V25.559H71.9171V29.2845H71.6243C71.581 29.2875 71.5374 29.2804 71.4984 29.2639C71.463 29.2454 71.4319 29.2215 71.4064 29.1934L68.9211 26.3993C68.9211 26.4433 68.9211 26.4845 68.9211 26.5256C68.9211 26.5667 68.9211 26.6049 68.9211 26.6402V29.2845H68.4342V25.5737H68.7372C68.7701 25.5737 68.8025 25.5797 68.8325 25.5913Z"
                  />
                  <path
                    fill="var(--icon-color, #000)" d="M76.2037 25.5736V25.982H74.1405V27.2071H75.8122V27.6008H74.1405V28.8671H76.2037V29.2754H73.5413V25.5736H76.2037Z"
                  />
                  <path
                    fill="var(--icon-color, #000)" d="M15.1952 2.65871L41.047 8.99274V31.1883L15.1952 24.8572V2.65871ZM13.5371 0.766724V25.9354L42.7017 33.0832V7.91748L13.5371 0.766724Z"
                  />
                  <path
                    fill="var(--icon-color, #000)" d="M29.168 44.7667L0 37.6129V12.4469L29.168 19.5977V44.7667Z"
                  />
                  <path
                    fill="var(--icon-color, #000)" d="M14.0205 2.37371L39.5352 8.62831L28.6845 17.9941L3.16636 11.7365L14.0205 2.37371ZM13.537 0.766724L0 12.4475L29.168 19.5981L42.7016 7.91736L13.537 0.766724Z"
                  />
                  <path
                    fill="var(--icon-color, #000)" d="M30.8091 43.3509L42.7016 33.0863L30.8091 30.1691V43.3509Z"
                  />
                </symbol>
<symbol id="vector" viewBox="0 0 8 8">
<path d="M8 0.805714L7.19429 0L4 3.19429L0.805714 0L0 0.805714L3.19429 4L0 7.19429L0.805714 8L4 4.80571L7.19429 8L8 7.19429L4.80571 4L8 0.805714Z"/>
</symbol>
<symbol id="icon-send" viewBox="0 0 24 20">
<path d="M24 0L0 11.25L7.66994 13.6172L19.5 4.375L10.5017 14.4913L10.509 14.4936L10.5 14.4913V20L14.8013 15.8183L20.2501 17.5L24 0Z" fill="white"/>
</symbol>
<symbol id="person1" viewBox="0 0 18 18">
<path d="M9 9C10.6575 9 12 7.6575 12 6C12 4.3425 10.6575 3 9 3C7.3425 3 6 4.3425 6 6C6 7.6575 7.3425 9 9 9ZM9 10.5C6.9975 10.5 3 11.505 3 13.5V14.25C3 14.6625 3.3375 15 3.75 15H14.25C14.6625 15 15 14.6625 15 14.25V13.5C15 11.505 11.0025 10.5 9 10.5Z"/>
</symbol>
<symbol id="email1" viewBox="0 0 18 24">
<path d="M15 6H3C2.175 6 1.5075 6.675 1.5075 7.5L1.5 16.5C1.5 17.325 2.175 18 3 18H15C15.825 18 16.5 17.325 16.5 16.5V7.5C16.5 6.675 15.825 6 15 6ZM14.7 9.1875L9.3975 12.5025C9.1575 12.6525 8.8425 12.6525 8.6025 12.5025L3.3 9.1875C3.1125 9.0675 3 8.865 3 8.6475C3 8.145 3.5475 7.845 3.975 8.1075L9 11.25L14.025 8.1075C14.4525 7.845 15 8.145 15 8.6475C15 8.865 14.8875 9.0675 14.7 9.1875Z"/>
</symbol>
<symbol id="phone1" viewBox="0 0 18 24">
<path d="M14.7263 13.8651L12.8881 13.6552C12.4467 13.6046 12.0125 13.7566 11.7013 14.0677L10.3697 15.3993C8.3217 14.3572 6.64276 12.6855 5.60067 10.6303L6.93947 9.29144C7.25065 8.98025 7.40263 8.54605 7.35197 8.1046L7.1421 6.28092C7.05526 5.55 6.44013 5 5.70198 5H4.45002C3.63226 5 2.952 5.68026 3.00266 6.49802C3.38621 12.6783 8.32894 17.6138 14.5019 17.9973C15.3197 18.048 15.9999 17.3677 15.9999 16.55V15.298C16.0072 14.5671 15.4572 13.952 14.7263 13.8651Z"/>
</symbol>
<symbol id="checkbox" viewBox="0 0 16 16">
<path d="M11.4456 4.25506C11.6184 4.08965 11.8483 3.99821 12.0869 4.00003C12.3255 4.00184 12.5541 4.09677 12.7244 4.26478C12.8947 4.4328 12.9934 4.66075 12.9997 4.90055C13.006 5.14034 12.9194 5.37323 12.7582 5.55005L7.86357 11.7044C7.7794 11.7955 7.67782 11.8686 7.5649 11.9194C7.45198 11.9702 7.33003 11.9975 7.20636 11.9998C7.08268 12.0021 6.95981 11.9793 6.8451 11.9328C6.73038 11.8863 6.62618 11.817 6.53872 11.729L3.29283 8.46564C3.20243 8.38096 3.12993 8.27884 3.07965 8.16537C3.02936 8.05191 3.00232 7.92942 3.00014 7.80522C2.99796 7.68102 3.02069 7.55765 3.06696 7.44248C3.11323 7.3273 3.18211 7.22267 3.26947 7.13483C3.35684 7.047 3.4609 6.97775 3.57547 6.93123C3.69003 6.88471 3.81273 6.86186 3.93627 6.86405C4.0598 6.86624 4.18163 6.89343 4.29449 6.94398C4.40734 6.99454 4.50892 7.06743 4.59315 7.15831L7.16189 9.73967L11.4223 4.28219C11.4299 4.27269 11.4381 4.26364 11.4468 4.25506H11.4456Z" fill="#F4F4FD"/>
</symbol>
<symbol id="burger" viewBox="0 0 32 22">
<path d="M1.34766 20.0431H30.8861M1.34766 10.7354H30.8861M1.34766 1.42773H30.8861" stroke="#2E2F42" stroke-width="3" stroke-linecap="round" stroke-linejoin="round"/>
</symbol>

<symbol id="menu-button" viewBox="0 0 32 32">
<path d="M26.7333 14H5.26667C4.56711 14 4 14.4253 4 14.95V15.05C4 15.5747 4.56711 16 5.26667 16H26.7333C27.4329 16 28 15.5747 28 15.05V14.95C28 14.4253 27.4329 14 26.7333 14Z" fill="white"/>
<path d="M26.7333 20H5.26667C4.56711 20 4 20.4253 4 20.95V21.05C4 21.5747 4.56711 22 5.26667 22H26.7333C27.4329 22 28 21.5747 28 21.05V20.95C28 20.4253 27.4329 20 26.7333 20Z" fill="white"/>
<path d="M26.7333 8H5.26667C4.56711 8 4 8.42533 4 8.95V9.05C4 9.57467 4.56711 10 5.26667 10H26.7333C27.4329 10 28 9.57467 28 9.05V8.95C28 8.42533 27.4329 8 26.7333 8Z" fill="white"/>
</symbol>
<symbol id="arrow" viewBox="0 0 41 16">
<path d="M40.7071 8.70711C41.0976 8.31658 41.0976 7.68342 40.7071 7.29289L34.3431 0.928932C33.9526 0.538408 33.3195 0.538408 32.9289 0.928932C32.5384 1.31946 32.5384 1.95262 32.9289 2.34315L38.5858 8L32.9289 13.6569C32.5384 14.0474 32.5384 14.6805 32.9289 15.0711C33.3195 15.4616 33.9526 15.4616 34.3431 15.0711L40.7071 8.70711ZM0 9H40V7H0V9Z" fill="#131313"/>
</symbol>
<symbol id="ice" viewBox="0 0 50 51">
<rect width="50" height="50.0121" rx="25" fill="#F8D24E"/>
<path d="M25.1219 7.1205C25.2123 7.36151 25.393 8.52887 25.393 8.89038C25.393 9.78661 25.0616 10.6226 24.4516 11.2778C23.947 11.8201 23.4424 12.1213 22.2298 12.6109C20.8817 13.1607 20.3244 13.4921 19.6918 14.1172C19.0516 14.7573 18.675 15.4577 18.5395 16.2787C18.3888 17.1749 18.5395 17.8075 18.9989 18.169L19.2324 18.3498L18.8633 18.5833C18.1177 19.0728 16.7621 20.2251 16.5286 20.5791C16.0767 21.2569 16.1219 21.8895 16.634 22.1456L16.875 22.2661L16.6039 22.5222C16.1972 22.9063 16.1144 23.1699 16.1746 23.8628C16.2123 24.3222 16.1972 24.5707 16.0918 24.9473C15.9637 25.4368 15.9637 25.4444 16.1294 25.7908C16.2951 26.1297 16.7621 26.559 17.1838 26.7397C17.3872 26.8301 17.3947 26.8603 17.4399 27.5531C17.4625 27.9523 17.5001 29.2251 17.5303 30.3849C17.5529 31.5448 17.6056 32.6067 17.6508 32.7347C17.6884 32.8703 17.8315 33.051 17.9596 33.1414C18.3964 33.4427 18.6976 33.7665 18.8934 34.1431C19.1119 34.5724 19.3529 35.6268 20.0834 39.272L20.5955 41.8326L20.9119 42.1339C21.5144 42.7289 22.6667 43 24.5646 43C26.47 43 27.6073 42.7364 28.2098 42.1414L28.5336 41.8326L29.0006 39.4603C30.0324 34.2711 30.1227 33.9849 30.9286 33.3448C31.1771 33.1414 31.4181 32.8929 31.4633 32.7799C31.516 32.6519 31.5688 31.6653 31.6064 30.1741C31.6365 28.8485 31.6817 27.5381 31.7119 27.2594L31.757 26.7548L32.2466 26.3858C32.8642 25.9113 33.1052 25.482 33.1052 24.8192C33.0976 24.036 32.5855 23.1774 31.6516 22.4092L31.2073 22.0477L31.4257 21.7389C32.337 20.4812 31.7646 18.7414 30.07 17.5816L29.5579 17.2276L29.7462 17.0318C30.5821 16.1356 30.7177 13.4619 30.0173 11.6017C29.5955 10.4946 28.6315 9.28954 27.4491 8.40084C26.8692 7.96402 25.2725 7 25.1294 7C25.0993 7 25.0993 7.05272 25.1219 7.1205ZM27.2909 9.74895C27.6901 10.1406 28.1721 10.6753 28.3604 10.9464C29.4826 12.513 29.7688 14.4787 29.0909 15.9247C28.8198 16.5121 28.0064 17.3858 27.2533 17.9054C26.101 18.7038 23.5102 20.0444 21.7027 20.7824C18.7955 21.9649 17.1085 22.1908 16.9127 21.4151C16.8374 21.1213 17.0558 20.8879 17.9821 20.2703C18.8181 19.6979 22.5688 16.9113 22.6365 16.7983C22.6591 16.7682 22.275 16.9414 21.793 17.1824C20.1587 18.0109 19.383 17.8527 19.4206 16.7004C19.4432 15.8644 20.0457 14.9155 20.8817 14.3732C21.0926 14.2377 21.7478 13.9364 22.3503 13.6954C24.3311 12.8971 24.9336 12.4904 25.6039 11.4887C26.0031 10.8937 26.4399 9.79414 26.47 9.3272C26.4775 9.16151 26.5077 9.03347 26.5303 9.03347C26.5529 9.03347 26.8918 9.35732 27.2909 9.74895ZM29.347 18.3046C29.8968 18.6134 30.4692 19.1406 30.7177 19.5548C31.1545 20.3004 30.9286 21.046 29.9872 21.995C28.9629 23.0343 27.2156 24.0285 25.2951 24.6611C23.5252 25.241 21.8307 25.5121 19.4056 25.595L17.8993 25.6477L18.8784 25.708C20.1437 25.7908 22.5914 25.7155 23.5403 25.5649C26.0633 25.1657 28.2098 24.3674 29.7462 23.2678C30.0926 23.0192 30.4541 22.8159 30.552 22.8159C30.8006 22.8159 31.8851 23.8552 32.1035 24.292C32.224 24.5406 32.2541 24.7213 32.2315 24.9623C32.1185 25.964 30.8985 26.4987 27.9537 26.8527C24.3537 27.282 19.6466 26.8603 17.6357 25.9339C16.6868 25.4971 16.5286 25.2485 16.7696 24.5858C16.8449 24.3749 16.86 24.1264 16.8298 23.7724C16.7922 23.3054 16.7997 23.2452 16.9654 23.072C17.342 22.6653 17.9746 22.4318 20.2943 21.8444C21.1077 21.6335 22.2148 21.3021 22.742 21.1063C24.0223 20.6393 26.4248 19.4268 27.5395 18.6812C28.5863 17.9883 28.737 17.9582 29.347 18.3046ZM19.3453 27.523C20.9269 27.9824 22.3278 28.118 24.9336 28.0653C26.8918 28.0276 28.0968 27.9071 29.8365 27.5983C30.1905 27.5381 30.4993 27.4854 30.537 27.4854C30.6198 27.4854 30.5972 30.3774 30.5068 31.1381C30.4089 31.9439 30.1905 32.569 29.957 32.7197C29.716 32.8778 28.511 33.0435 26.8993 33.1339C23.593 33.3146 20.1964 33.1339 19.142 32.7121C18.5696 32.4787 18.5093 32.1774 18.5018 29.3833C18.5018 27.523 18.5169 27.2669 18.6148 27.3046C18.675 27.3272 19.0064 27.4251 19.3453 27.523ZM21.1303 33.9247C21.6725 33.9925 22.26 34.0603 22.4407 34.0828L22.7646 34.1205L22.4784 34.4368C22.1093 34.836 21.5445 35.6343 21.3411 36.041C21.1077 36.5079 21.0324 36.5381 20.6859 36.3498L20.3922 36.1841L20.2265 35.1598C20.1361 34.6025 20.0382 34.0678 20.0156 33.9774C19.9478 33.7816 19.8801 33.7816 21.1303 33.9247ZM29.1587 33.8418C29.1587 33.8569 29.1211 34.0527 29.0834 34.2711C29.0382 34.4971 28.8499 35.7247 28.6616 37.005C28.2775 39.6787 28.0215 40.9364 27.788 41.3582C27.4642 41.923 26.6884 42.2544 25.4307 42.3598C24.9411 42.3975 23.465 42.2996 23.3821 42.2243C23.3219 42.1565 24.6173 40.5523 24.8206 40.4469C25.0089 40.3414 25.0616 40.3565 25.7018 40.6879C26.4474 41.0795 26.824 41.1397 26.824 40.8912C26.824 40.6427 26.6282 40.4017 26.1462 40.0703C25.7018 39.754 25.5437 39.5732 25.5437 39.3623C25.5437 39.3021 25.7621 38.9632 26.0257 38.6092C26.2893 38.2552 26.6734 37.6904 26.8692 37.3515L27.2382 36.7414L27.5771 36.7866C28.2625 36.8845 28.4432 36.877 28.4206 36.7264C28.4056 36.651 28.2775 36.4326 28.1344 36.2519C27.9914 36.0636 27.8784 35.8753 27.8784 35.8377C27.8784 35.6946 28.5788 34.3766 28.8047 34.0979C29.0006 33.8569 29.1587 33.7364 29.1587 33.8418ZM24.4516 34.4444C24.8282 34.6929 26.2441 35.9205 26.3344 36.0711C26.3721 36.1389 24.9185 38.4134 24.6324 38.7372C24.6022 38.7749 24.4441 38.6996 24.2859 38.5791C24.1278 38.451 23.5403 38.0444 22.9755 37.6753L21.9587 37.005L22.5688 35.9732C23.6533 34.1582 23.6307 34.1883 23.8642 34.1883C23.9847 34.1883 24.2483 34.3013 24.4516 34.4444ZM27.306 34.7155C27.0424 35.0393 26.824 35.2427 26.7336 35.2427C26.5378 35.2427 26.2215 35.0695 25.6868 34.6778L25.2424 34.354L26.1311 34.3013C26.6131 34.2787 27.0801 34.2485 27.1629 34.2335C27.7654 34.1356 27.7654 34.1431 27.306 34.7155ZM21.6123 38.3381C22.3052 38.6092 23.4801 39.2494 23.819 39.5356C24.06 39.7314 24.06 39.7464 23.9621 39.9874C23.9018 40.123 23.6985 40.4845 23.4951 40.7933C23.2993 41.0946 23.0734 41.4711 22.9905 41.6293C22.7495 42.0962 22.6742 42.1339 22.1771 41.9983C21.6424 41.8402 21.3562 41.569 21.2056 41.0795C21.0022 40.3941 20.6784 38.4586 20.716 38.1573C20.7311 38.0444 21.0474 38.1121 21.6123 38.3381Z" fill="black"/>
</symbol>
<symbol id="small-cow" viewBox="0 0 50 50">
<path d="M13.9394 7.21631C13.6462 7.47 12.8072 9.22042 12.5059 10.176C12.1475 11.3598 12.0253 12.2477 12.0742 13.4739C12.1394 15.2243 12.5792 16.5519 13.5484 17.9387C13.8009 18.3023 14.0045 18.6152 14.0045 18.6406C14.0045 18.6575 13.8498 18.6744 13.6543 18.6744C12.8154 18.6744 11.2434 18.9534 10.038 19.3171C8.12398 19.8921 7 20.8984 7 22.023C7 22.4205 7.35837 23.097 7.74118 23.4437C8.48235 24.1117 10.1032 24.7459 11.8462 25.0503C12.4489 25.1603 14.2407 25.3463 14.6398 25.3548C14.7131 25.3548 14.7376 25.7437 14.7376 27.0206C14.7376 28.1199 14.7783 28.974 14.8597 29.4983C15.1529 31.3755 16.0652 33.3627 17.2706 34.7664L17.686 35.2484L17.409 35.6966C17.0018 36.3308 16.8471 36.8128 16.7982 37.5316C16.676 39.2567 17.7511 40.7872 19.8281 41.8612C23.7864 43.916 29.9357 43.1127 32.2407 40.2376C33.3647 38.8339 33.495 37.2272 32.6072 35.7727L32.3303 35.3245L32.8272 34.7242C33.7557 33.608 34.3584 32.4917 34.8145 31.0796C35.1973 29.8788 35.3439 28.7203 35.3439 26.8853C35.3439 26.0482 35.3683 25.3548 35.4091 25.3548C35.7837 25.3463 37.5837 25.1518 38.1538 25.0503C39.905 24.7459 41.4932 24.1202 42.2588 23.4437C42.6416 23.097 43 22.4205 43 22.023C43 20.7715 41.7294 19.7568 39.3674 19.1479C38.5937 18.945 37.1357 18.6998 36.4272 18.6575L36.0932 18.6321L36.4597 18.1247C36.9158 17.5074 37.486 16.3067 37.7059 15.5203C38.3249 13.2456 37.9421 10.5988 36.6145 8.07038C36.0606 7.02182 35.6778 6.7766 35.2299 7.19094C35.0588 7.35161 34.9855 7.57147 34.8226 8.36635C34.3176 10.8947 33.381 12.8988 32.0127 14.3787L31.41 15.0383H24.9674H18.5249L17.9873 14.4548C16.6516 12.9834 15.6824 10.9032 15.1774 8.36635C15.0145 7.57147 14.9412 7.35161 14.7701 7.19094C14.5014 6.94572 14.2407 6.95417 13.9394 7.21631ZM14.9819 12.2308C15.4136 13.1779 15.9511 14.0658 16.5864 14.886L17.0914 15.5372L16.562 15.9346C16.0652 16.3151 15.6009 16.8563 15.2425 17.4736L15.0878 17.7527L14.6968 17.2199C13.3611 15.3765 13.0271 13.1187 13.7357 10.7764C14.0778 9.64323 14.0697 9.65169 14.3792 10.6326C14.5258 11.1061 14.8027 11.8249 14.9819 12.2308ZM36.1828 10.4466C36.5167 11.4528 36.6471 12.2562 36.6471 13.2963C36.6471 14.8353 36.2398 16.1376 35.3846 17.3045L35.0018 17.8288L34.7167 17.3468C34.3828 16.7549 33.8127 16.1376 33.2914 15.7824C33.0715 15.6386 32.9005 15.4949 32.9005 15.478C32.9005 15.4526 33.0552 15.2581 33.2507 15.0467C34.1548 14.0404 35.124 12.2308 35.6045 10.6749C35.7511 10.1929 35.8977 9.79544 35.9222 9.79544C35.9466 9.79544 36.0688 10.0914 36.1828 10.4466ZM32.0208 16.628C32.9249 17.0085 33.7882 18.0994 33.9267 19.0211C34 19.5285 34.171 19.8498 34.391 19.9005C34.4887 19.9174 35.1647 19.9766 35.8896 20.0274C38.4634 20.1965 40.4914 20.7462 41.3548 21.4987C41.7538 21.8539 41.7131 22.1499 41.2326 22.5135C40.2715 23.2407 38.1946 23.7904 36.0769 23.8834C34.676 23.9426 34.3828 23.9849 34.1955 24.1793C34.057 24.3231 34.0407 24.4753 34.0407 26.0059C34.0407 28.0776 33.9348 29.2699 33.6742 30.2339C33.3077 31.5447 32.5828 32.9399 31.7357 33.9293L31.3855 34.3352L30.6606 33.9039C29.781 33.3796 28.9584 33.0414 27.9729 32.8131C24.886 32.0774 21.4733 32.5256 19.1765 33.9716L18.6471 34.3098L18.3131 33.9124C17.857 33.3796 17.1403 32.2381 16.8552 31.5954C16.2281 30.1409 16.0407 28.9571 16.0407 26.3526C16.0407 23.8242 16.171 24.0102 14.2977 23.9088C11.9032 23.7819 10.0787 23.3506 8.93032 22.6234C8.08326 22.0822 8.22172 21.6002 9.40271 21.0337C10.5348 20.484 12.0905 20.1542 14.2489 20.0189C15.9267 19.909 15.9674 19.8836 16.1222 19.0718C16.3502 17.8457 17.2543 16.831 18.3946 16.5096C18.6796 16.4251 20.276 16.4081 25.1629 16.4166L31.5566 16.4335L32.0208 16.628ZM27.4434 34.1322C29.4389 34.6227 30.9294 35.536 31.5729 36.6691C31.7276 36.9312 31.7928 37.2018 31.8253 37.6162C31.8579 38.132 31.8335 38.2588 31.638 38.6816C30.7339 40.6012 27.4109 41.8696 24.0308 41.5821C19.9665 41.2439 17.295 38.9776 18.3457 36.7536C18.9158 35.5529 20.8462 34.4028 22.8824 34.0646C23.2163 34.0138 23.5502 33.9547 23.6154 33.9377C23.6805 33.9208 24.4136 33.9208 25.2443 33.9377C26.3765 33.9631 26.9222 34.0138 27.4434 34.1322Z" fill="#131313"/>
<path d="M19.3635 20.8613C18.8585 21.0304 18.5164 21.2502 18.0603 21.7067C17.6612 22.0871 17.6286 22.5352 17.9626 22.8057C18.2721 23.0593 18.5653 23.0255 18.9399 22.6958C19.4123 22.2816 19.7789 22.1125 20.235 22.1125C20.6911 22.104 21.0413 22.2647 21.53 22.6958C21.9046 23.0255 22.1979 23.0593 22.5074 22.8057C22.6703 22.6705 22.7191 22.5606 22.7191 22.3069C22.7191 22.0449 22.6621 21.9265 22.377 21.6391C21.5707 20.8275 20.3734 20.5147 19.3635 20.8613Z" fill="#131313"/>
<path d="M28.8606 20.8525C28.3393 21.047 27.6714 21.4866 27.4026 21.8163C27.142 22.1376 27.1339 22.5011 27.4026 22.7716C27.6714 23.0591 27.9972 23.0421 28.3882 22.7209C29.3492 21.9262 30.066 21.9008 30.9538 22.6364C31.1818 22.8308 31.4425 22.983 31.5239 22.983C31.923 22.983 32.2488 22.6279 32.2488 22.2052C32.2488 21.9347 31.5728 21.3091 30.9619 21.0132C30.2859 20.6835 29.4796 20.6243 28.8606 20.8525Z" fill="#131313"/>
<path d="M20.5448 36.5015C20.3086 36.7298 20.2272 37.0595 20.3493 37.3216C20.4389 37.5329 20.5774 37.6175 21.1394 37.7697C21.3919 37.8373 21.4978 37.9218 21.5874 38.1332C21.7014 38.4122 21.7095 38.4122 22.3367 38.4375L22.9638 38.4629V38.2262C22.9557 37.888 22.7683 37.3977 22.524 37.0595C22.2389 36.6706 21.7421 36.417 21.1801 36.3663C20.7973 36.3325 20.6996 36.3494 20.5448 36.5015Z" fill="#131313"/>
<path d="M28.3228 36.4419C27.9155 36.5518 27.3291 37.1013 27.1662 37.5325C27.0929 37.7269 27.0196 38.0735 27.0115 38.3018C26.9952 38.6653 27.0278 38.7499 27.2232 38.9274C27.7038 39.3501 28.3391 39.0204 28.3391 38.3441C28.3391 38.0144 28.5834 37.7861 29.0151 37.7016C29.4712 37.617 29.6341 37.431 29.6422 36.9999C29.6422 36.4335 29.1373 36.2136 28.3228 36.4419Z" fill="#131313"/>
</symbol>
<symbol id="weight" viewBox="0 0 50 50">
<rect width="50" height="50" rx="25" fill="#F8D24E"/>
<path d="M22.9495 7.61529C18.4785 8.27834 14.7969 10.7607 13.4423 14.0112C13.0102 15.0381 12.8938 15.6688 12.8938 16.906C12.9021 17.8197 12.9354 18.1593 13.0766 18.6525C13.3675 19.6228 13.5753 20.1161 14.0074 20.8115L14.4063 21.4583L13.9576 22.0082C10.409 26.4231 10.0184 32.633 12.9769 37.525C14.0822 39.3605 15.8856 41.1637 17.6474 42.2148L18.171 42.5221L25.3346 42.4655L32.5066 42.4008L32.8473 42.2148C34.0357 41.5437 35.7144 40.0478 36.6535 38.8349C38.0663 36.9913 38.9888 34.8405 39.3794 32.5118C39.5123 31.6789 39.5123 29.2127 39.3711 28.4284C38.9472 26.0107 38.0414 23.9407 36.612 22.1052C36.3377 21.7575 36.1217 21.4664 36.1217 21.4422C36.1217 21.426 36.2712 21.1753 36.4458 20.8923C36.853 20.2455 37.2186 19.4126 37.4181 18.6849C37.6425 17.8763 37.6425 15.8548 37.4181 15.0462C36.6203 12.1757 34.2269 9.78231 30.8445 8.46431C29.8971 8.09236 28.2765 7.69615 27.2294 7.56678C26.2571 7.45358 23.8554 7.47783 22.9495 7.61529ZM28.0106 8.93329C32.4484 9.79848 35.6978 12.5153 36.2962 15.8629C36.4291 16.6149 36.346 17.8925 36.1217 18.604C35.8973 19.2994 35.4818 20.1161 34.9914 20.8115C34.792 21.0945 34.6258 21.4179 34.6258 21.523C34.6258 21.6281 34.8003 21.9031 35.0496 22.178C37.1272 24.4825 38.2242 27.3691 38.2242 30.4903C38.2159 34.04 36.853 37.1531 34.2269 39.595C33.7781 40.0155 33.1382 40.5411 32.7975 40.7675L32.1742 41.1879L25.3014 41.2122L18.4369 41.2445L17.905 40.9049C15.977 39.6516 14.2401 37.5816 13.2761 35.3823C12.0628 32.6007 11.9381 29.3744 12.9271 26.4797C13.4506 24.9757 14.1487 23.7467 15.2124 22.4529C15.6446 21.9354 15.844 21.6281 15.844 21.4826C15.844 21.3613 15.628 20.9651 15.3454 20.5527C14.3481 19.1053 13.9409 17.4963 14.1819 15.9761C14.4313 14.4398 15.1293 13.1784 16.4175 11.9251C18.0962 10.2998 20.4397 9.22438 23.1905 8.82009C24.3291 8.65029 26.8471 8.71497 28.0106 8.93329Z" fill="black"/>
<path d="M23.3229 10.3563C19.9155 10.9143 17.2479 12.8064 16.3753 15.2887C16.1758 15.8467 16.1426 16.065 16.1426 16.8655C16.1426 17.666 16.1758 17.8843 16.3753 18.4422C16.4999 18.798 16.7326 19.2913 16.8905 19.5419C17.3227 20.2373 17.5138 20.2616 18.3698 19.7441C19.6496 18.9597 21.1206 18.3856 22.6497 18.0703C23.6802 17.8601 25.6581 17.7792 26.78 17.9086C28.5335 18.1107 30.4366 18.7414 31.9575 19.639C32.3896 19.8896 32.8301 20.0999 32.9381 20.0999C33.5697 20.0999 34.3758 18.2805 34.3758 16.8655C34.3758 13.7201 31.3674 11.0275 27.1041 10.3563C26.1983 10.2108 24.1955 10.2108 23.3229 10.3563ZM27.4365 11.6501C28.866 11.9574 30.179 12.5395 31.168 13.3077C32.4976 14.3346 33.2123 15.7658 33.096 17.1485C33.0544 17.6983 32.8467 18.4422 32.722 18.5231C32.6888 18.5393 32.2234 18.3452 31.6915 18.0865C30.5862 17.5528 29.3313 17.1242 28.0598 16.8493C27.287 16.6876 26.9628 16.6633 25.2343 16.6714C23.5306 16.6714 23.1733 16.6957 22.4336 16.8493C21.1538 17.1242 20.1565 17.4639 18.9266 18.046C17.6883 18.6363 17.7548 18.6444 17.5304 17.9167C17.2396 16.9706 17.4224 15.7173 17.9875 14.7712C18.2867 14.2699 19.1094 13.4371 19.7078 13.0247C20.8463 12.2404 21.8436 11.8846 23.9877 11.4965C24.4281 11.4156 26.8714 11.5288 27.4365 11.6501Z" fill="black"/>
<path d="M26.0827 22.0808C25.85 22.3719 25.85 22.6468 26.091 22.8813C26.2489 23.035 26.4068 23.0754 26.9802 23.1158C28.0938 23.1967 29.1576 23.5201 30.1133 24.07C30.7947 24.4743 31.8335 25.4526 32.2989 26.1561C32.9887 27.1669 33.4624 28.6142 33.4624 29.6816C33.4624 30.0535 33.4956 30.1667 33.6702 30.3284C33.9361 30.5953 34.2851 30.5953 34.5428 30.3284C34.7256 30.1425 34.7339 30.0939 34.684 29.3015C34.4513 25.388 31.1022 22.1213 27.0966 21.9029L26.2655 21.8544L26.0827 22.0808Z" fill="black"/>
</svg>
</symbol>
</defs>
</svg>
